<svg width="1600" height="1200" viewBox="0 0 1600 1200" fill="none" xmlns="http://www.w3.org/2000/svg">
<path d="M474.81 478.589C474.81 494.636 468.745 507.615 456.615 517.526C444.485 527.437 428.495 532.393 408.645 532.393C391.474 532.393 375.326 530.191 360.203 525.786V469.385H360.675L391.867 523.19C393.285 525.707 395.018 527.123 397.066 527.437C399.429 527.752 402.737 527.909 406.991 527.909C416.758 527.909 424.556 525.55 430.385 520.83C436.214 516.11 439.128 509.424 439.128 500.771C439.128 493.377 436.687 487.477 431.803 483.072C426.919 478.51 418.491 473.397 406.518 467.733L399.193 464.193C392.891 461.204 387.535 458.372 383.124 455.698C378.713 452.866 374.145 449.405 369.419 445.315C364.85 441.067 361.305 436.111 358.785 430.447C356.422 424.627 355.24 418.176 355.24 411.097C355.24 396.151 360.833 384.194 372.018 375.227C383.203 366.259 398.09 361.776 416.679 361.776C431.96 361.776 447.084 363.585 462.05 367.203V421.008H461.577L429.676 370.035C428.416 368.147 426.84 367.046 424.95 366.731C423.217 366.417 420.933 366.259 418.097 366.259C409.59 366.259 402.737 368.541 397.539 373.103C392.498 377.665 389.977 384.037 389.977 392.218C389.977 399.14 392.261 404.725 396.83 408.973C401.556 413.221 409.275 417.94 419.988 423.132L428.731 427.38C434.875 430.369 439.758 432.886 443.382 434.931C447.005 436.819 451.022 439.415 455.433 442.719C460.002 445.865 463.468 449.012 465.831 452.158C468.351 455.305 470.478 459.159 472.211 463.721C473.944 468.284 474.81 473.24 474.81 478.589Z" fill="#F8F8F8"/>
<path d="M611.309 461.126C611.309 466.789 611.152 476.229 610.837 489.444C610.679 502.502 610.601 510.368 610.601 513.042C610.601 515.402 611.388 517.29 612.964 518.706L624.542 529.561V530.033H558.377V529.561L569.484 518.706C571.059 517.29 571.847 515.481 571.847 513.278C571.847 512.806 571.925 506.041 572.083 492.984C572.398 479.768 572.555 470.958 572.555 466.553C572.555 454.754 571.216 445.865 568.538 439.887C566.018 433.909 561.37 430.919 554.596 430.919C547.665 430.919 541.757 434.459 536.873 441.539V513.042C536.873 515.402 537.661 517.29 539.237 518.706L550.815 529.561V530.033H484.65V529.561L496.229 518.706C497.647 517.29 498.356 515.402 498.356 513.042V381.363C498.356 378.845 497.647 376.879 496.229 375.463L484.65 364.608V364.136L536.873 358V438.943C543.332 420.536 555.857 411.333 574.446 411.333C586.419 411.333 595.556 415.58 601.857 424.076C608.159 432.571 611.309 444.921 611.309 461.126Z" fill="#F8F8F8"/>
<path d="M737.387 459.002C737.387 459.946 737.308 461.598 737.151 463.957C737.151 466.16 737.151 467.34 737.151 467.497L735.733 501.007C735.26 510.132 737.387 514.694 742.113 514.694C745.106 514.694 747.312 513.278 748.73 510.447H749.202C749.202 513.593 748.572 516.425 747.312 518.942C743.058 527.595 735.339 531.921 724.154 531.921C717.065 531.921 711.079 529.955 706.195 526.022C701.311 521.931 698.712 516.268 698.397 509.031C696.034 515.953 691.938 521.538 686.109 525.786C680.438 529.876 673.821 531.921 666.259 531.921C657.122 531.921 649.482 529.011 643.338 523.19C637.194 517.211 634.122 509.031 634.122 498.647C634.122 487.635 638.06 478.982 645.937 472.689C653.972 466.239 663.266 463.013 673.821 463.013C684.534 463.013 692.883 465.137 698.869 469.385L699.342 444.135V442.955C699.342 424.863 693.592 415.816 682.092 415.816C679.729 415.816 678.232 415.974 677.602 416.288C677.129 416.603 676.499 417.39 675.712 418.648L656.571 454.046H656.098L641.211 420.3C657.91 414.322 673.821 411.333 688.945 411.333C705.643 411.333 717.853 414.951 725.572 422.188C733.449 429.582 737.387 441.853 737.387 459.002ZM690.126 470.329C684.14 470.329 679.414 472.61 675.948 477.173C672.64 481.735 670.985 487.556 670.985 494.636C670.985 500.928 672.246 505.884 674.766 509.503C677.445 512.964 680.832 514.694 684.927 514.694C690.284 514.694 694.774 511.941 698.397 506.435V506.199L698.869 471.745C696.034 470.801 693.119 470.329 690.126 470.329Z" fill="#F8F8F8"/>
<path d="M769.261 566.847V431.391C769.261 429.032 768.552 427.065 767.134 425.492L755.555 413.693V413.221H807.778V438.235C815.497 420.3 827.707 411.333 844.405 411.333C857.638 411.333 868.351 416.603 876.543 427.144C884.892 437.527 889.067 451.529 889.067 469.149C889.067 487.871 884.341 503.052 874.889 514.694C865.436 526.179 853.464 531.921 838.97 531.921C822.744 531.921 812.347 525.943 807.778 513.986V565.431C807.778 567.004 807.936 568.106 808.251 568.735C808.723 569.364 809.747 570.229 811.323 571.331L828.809 583.366V583.838H755.555V583.366L767.134 572.511C768.552 571.095 769.261 569.207 769.261 566.847ZM825.501 430.212C818.569 430.212 812.662 433.909 807.778 441.303V512.334C811.402 516.268 816.521 518.234 823.138 518.234C829.912 518.234 835.741 514.38 840.625 506.671C845.666 498.805 848.186 486.927 848.186 471.037C848.186 443.82 840.625 430.212 825.501 430.212Z" fill="#F8F8F8"/>
<path d="M934.411 400.241C929.213 400.241 924.723 398.668 920.942 395.522C917.319 392.218 915.507 387.97 915.507 382.778C915.507 377.272 917.319 372.867 920.942 369.563C924.723 366.102 929.213 364.372 934.411 364.372C939.925 364.372 944.494 366.102 948.117 369.563C951.741 372.867 953.552 377.272 953.552 382.778C953.552 387.97 951.741 392.218 948.117 395.522C944.494 398.668 939.925 400.241 934.411 400.241ZM902.038 413.221H954.497V513.042C954.497 515.56 955.206 517.447 956.624 518.706L968.203 529.561V530.033H902.038V529.561L913.617 518.706C915.034 517.447 915.743 515.56 915.743 513.042V431.391C915.743 429.032 915.034 427.065 913.617 425.492L902.038 413.693V413.221Z" fill="#F8F8F8"/>
<path d="M1106.81 461.126C1106.81 466.789 1106.65 476.229 1106.34 489.444C1106.18 502.502 1106.1 510.368 1106.1 513.042C1106.1 515.402 1106.81 517.29 1108.23 518.706L1120.05 529.561V530.033H1053.64V529.561L1064.99 518.706C1066.4 517.29 1067.11 515.481 1067.11 513.278C1067.11 512.806 1067.19 506.041 1067.35 492.984C1067.66 479.768 1067.82 470.958 1067.82 466.553C1067.82 454.754 1066.56 445.865 1064.04 439.887C1061.52 433.909 1056.79 430.919 1049.86 430.919C1042.93 430.919 1037.1 434.381 1032.38 441.303V513.042C1032.38 515.56 1033.09 517.447 1034.5 518.706L1046.08 529.561V530.033H979.917V529.561L991.496 518.706C992.913 517.447 993.622 515.56 993.622 513.042V431.391C993.622 429.032 992.913 427.065 991.496 425.492L979.917 413.693V413.221H1032.38V438.235C1038.84 420.3 1051.36 411.333 1069.95 411.333C1081.76 411.333 1090.82 415.58 1097.12 424.076C1103.58 432.571 1106.81 444.921 1106.81 461.126Z" fill="#F8F8F8"/>
<path d="M1133.33 450.506C1133.33 437.606 1137.98 427.852 1147.28 421.244C1156.57 414.636 1168.86 411.333 1184.14 411.333C1197.53 411.333 1208.32 413.535 1216.51 417.94C1218.25 418.884 1219.9 418.491 1221.48 416.76L1246.05 390.802L1246.52 391.038V426.436H1224.31C1232.35 432.886 1236.36 441.381 1236.36 451.922C1236.36 464.351 1231.64 473.633 1222.18 479.768C1212.89 485.747 1200.44 488.736 1184.85 488.736C1177.29 488.736 1170.91 488.107 1165.71 486.848C1160.82 488.736 1158.38 491.646 1158.38 495.579C1158.38 502.502 1166.42 505.963 1182.49 505.963H1204.46C1232.66 505.963 1246.76 516.425 1246.76 537.349C1246.76 551.665 1240.46 563.307 1227.86 572.275C1215.25 581.242 1199.34 585.726 1180.12 585.726C1167.2 585.726 1155.86 583.602 1146.09 579.354C1136.48 575.264 1131.68 569.443 1131.68 561.891C1131.68 556.857 1133.89 552.373 1138.3 548.44C1142.86 544.664 1149.8 542.069 1159.09 540.653C1150.9 538.922 1144.52 535.776 1139.95 531.213C1135.54 526.651 1133.33 521.223 1133.33 514.93C1133.33 508.008 1136.01 502.03 1141.37 496.995C1146.72 491.961 1153.97 488.343 1163.11 486.14C1143.26 481.106 1133.33 469.228 1133.33 450.506ZM1169.49 541.833C1165.87 541.518 1163.11 541.203 1161.22 540.889C1154.92 544.664 1151.77 549.699 1151.77 555.992C1151.77 563.543 1155.39 569.522 1162.64 573.927C1169.88 578.489 1178.39 580.77 1188.16 580.77C1197.61 580.77 1205.72 578.804 1212.5 574.871C1219.43 570.937 1222.89 565.352 1222.89 558.116C1222.89 553.239 1221.16 549.541 1217.69 547.024C1214.39 544.507 1208.56 543.091 1200.21 542.777L1169.49 541.833ZM1169.72 449.798C1169.72 462.384 1170.98 471.352 1173.51 476.701C1176.03 482.05 1179.81 484.724 1184.85 484.724C1189.89 484.724 1193.67 482.128 1196.19 476.937C1198.71 471.588 1199.97 462.62 1199.97 450.034C1199.97 437.606 1198.71 428.717 1196.19 423.368C1193.83 418.019 1190.05 415.344 1184.85 415.344C1179.65 415.344 1175.79 418.019 1173.27 423.368C1170.91 428.56 1169.72 437.37 1169.72 449.798Z" fill="#F8F8F8"/>
<path d="M516.739 664.32C511.54 664.32 507.05 662.747 503.269 659.6C499.646 656.297 497.834 652.049 497.834 646.857C497.834 641.351 499.646 636.946 503.269 633.642C507.05 630.181 511.54 628.45 516.739 628.45C522.252 628.45 526.821 630.181 530.444 633.642C534.068 636.946 535.879 641.351 535.879 646.857C535.879 652.049 534.068 656.297 530.444 659.6C526.821 662.747 522.252 664.32 516.739 664.32ZM484.365 677.299H536.825V777.121C536.825 779.638 537.533 781.526 538.951 782.785L550.53 793.64V794.112H484.365V793.64L495.944 782.785C497.362 781.526 498.071 779.638 498.071 777.121V695.47C498.071 693.11 497.362 691.144 495.944 689.571L484.365 677.771V677.299Z" fill="#F8F8F8"/>
<path d="M681.605 622.079V776.413C681.605 778.93 682.314 780.818 683.732 782.077L695.547 793.64V794.112H643.088V771.93C636.156 787.977 624.577 796 608.351 796C594.488 796 583.224 790.73 574.559 780.189C566.053 769.648 561.799 754.939 561.799 736.06C561.799 717.968 566.525 703.336 575.977 692.166C585.587 680.996 597.796 675.411 612.604 675.411C627.255 675.411 637.416 681.704 643.088 694.29V645.441C643.088 642.924 642.3 640.958 640.725 639.542L629.382 628.686V628.214L681.605 622.079ZM626.546 778.301C633.005 778.301 638.519 775.312 643.088 769.334V696.414C639.307 691.537 634.187 689.099 627.728 689.099C620.481 689.099 614.495 692.796 609.769 700.19C605.043 707.427 602.68 718.99 602.68 734.88C602.68 749.983 604.806 760.996 609.06 767.918C613.471 774.84 619.3 778.301 626.546 778.301Z" fill="#F8F8F8"/>
<path d="M816.031 730.396H745.14V730.868C745.14 745.342 748.291 756.197 754.592 763.434C760.894 770.514 769.007 774.053 778.931 774.053C795.63 774.053 807.603 766.816 814.85 752.343H815.322C809.336 781.448 791.928 796 763.099 796C746.873 796 733.167 790.966 721.982 780.897C710.797 770.828 705.204 756.04 705.204 736.532C705.204 715.922 710.797 700.583 721.982 690.515C733.167 680.446 747.345 675.411 764.517 675.411C771.133 675.411 777.356 676.277 783.185 678.007C789.014 679.738 794.449 682.412 799.49 686.031C804.689 689.649 808.785 694.841 811.778 701.606C814.771 708.213 816.268 716.08 816.268 725.204C816.268 726.778 816.189 728.508 816.031 730.396ZM764.044 679.895C757.9 679.895 753.253 683.514 750.102 690.751C746.952 697.83 745.297 709.629 745.14 726.148H779.877C780.034 724.103 780.113 721.743 780.113 719.069C780.113 704.438 778.695 694.29 775.859 688.627C773.181 682.806 769.243 679.895 764.044 679.895Z" fill="#F8F8F8"/>
<path d="M933.875 723.081C933.875 724.025 933.796 725.676 933.639 728.036C933.639 730.239 933.639 731.419 933.639 731.576L932.221 765.086C931.748 774.211 933.875 778.773 938.601 778.773C941.594 778.773 943.8 777.357 945.218 774.525H945.69C945.69 777.672 945.06 780.504 943.8 783.021C939.547 791.674 931.827 796 920.642 796C913.553 796 907.567 794.033 902.683 790.1C897.799 786.01 895.2 780.346 894.885 773.109C892.522 780.032 888.426 785.617 882.597 789.864C876.926 793.955 870.309 796 862.748 796C853.61 796 845.97 793.09 839.826 787.269C833.682 781.29 830.61 773.109 830.61 762.726C830.61 751.713 834.549 743.061 842.425 736.768C850.46 730.317 859.754 727.092 870.309 727.092C881.022 727.092 889.371 729.216 895.358 733.464L895.83 708.213V707.034C895.83 688.941 890.08 679.895 878.58 679.895C876.217 679.895 874.72 680.053 874.09 680.367C873.618 680.682 872.987 681.468 872.2 682.727L853.059 718.125H852.586L837.699 684.379C854.398 678.401 870.309 675.411 885.433 675.411C902.132 675.411 914.341 679.03 922.06 686.267C929.937 693.661 933.875 705.932 933.875 723.081ZM886.614 734.408C880.628 734.408 875.902 736.689 872.436 741.251C869.128 745.814 867.474 751.635 867.474 758.714C867.474 765.007 868.734 769.963 871.254 773.581C873.933 777.043 877.32 778.773 881.416 778.773C886.772 778.773 891.262 776.02 894.885 770.514V770.278L895.358 735.824C892.522 734.88 889.607 734.408 886.614 734.408Z" fill="#F8F8F8"/>
<path d="M1022.42 774.525C1022.42 769.963 1020.76 766.345 1017.45 763.67C1014.3 760.996 1008.4 757.692 999.732 753.759L983.663 746.207C968.382 738.97 960.742 727.8 960.742 712.697C960.742 701.37 965.074 692.324 973.739 685.559C982.403 678.794 994.218 675.411 1009.18 675.411C1023.05 675.411 1036.91 677.535 1050.77 681.783L1037.54 716.001H1037.07L1018.64 683.199C1017.22 680.839 1015.41 679.659 1013.2 679.659H1009.89C1004.38 679.659 999.811 681.075 996.188 683.907C992.564 686.739 990.753 690.829 990.753 696.178C990.753 701.055 992.407 704.988 995.715 707.978C999.181 710.967 1004.77 714.192 1012.49 717.653L1027.62 724.26C1036.12 727.879 1042.58 732.127 1046.99 737.004C1051.56 741.881 1053.85 748.488 1053.85 756.826C1053.85 769.255 1049.04 778.93 1039.43 785.853C1029.82 792.618 1016.98 796 1000.91 796C985.79 796 971.297 793.562 957.434 788.685L970.43 752.107H970.903L989.807 788.685C990.753 790.73 992.407 791.752 994.77 791.752H1000.2C1006.98 791.752 1012.34 790.179 1016.27 787.033C1020.37 783.886 1022.42 779.717 1022.42 774.525Z" fill="#F8F8F8"/>
<path d="M1073.03 778.065C1073.03 772.716 1074.84 768.311 1078.46 764.85C1082.24 761.232 1086.73 759.422 1091.93 759.422C1097.29 759.422 1101.78 761.153 1105.4 764.614C1109.18 768.075 1111.07 772.559 1111.07 778.065C1111.07 783.257 1109.18 787.583 1105.4 791.044C1101.78 794.348 1097.29 796 1091.93 796C1086.73 796 1082.24 794.348 1078.46 791.044C1074.84 787.583 1073.03 783.257 1073.03 778.065Z" fill="#F8F8F8"/>
</svg>
