<svg width="800" height="1000" viewBox="0 0 800 1000" fill="none" xmlns="http://www.w3.org/2000/svg">
<path d="M264.624 459.158C264.624 465.818 262.107 471.205 257.073 475.318C252.038 479.432 245.402 481.488 237.164 481.488C230.038 481.488 223.336 480.574 217.06 478.746V455.339H217.256L230.201 477.669C230.79 478.713 231.509 479.301 232.359 479.432C233.339 479.562 234.712 479.627 236.478 479.627C240.531 479.627 243.768 478.648 246.187 476.689C248.606 474.731 249.815 471.956 249.815 468.364C249.815 465.296 248.802 462.847 246.775 461.019C244.748 459.126 241.25 457.004 236.282 454.653L233.241 453.184C230.626 451.943 228.403 450.768 226.572 449.658C224.742 448.483 222.846 447.046 220.884 445.349C218.988 443.586 217.517 441.529 216.471 439.179C215.49 436.763 215 434.086 215 431.148C215 424.945 217.321 419.983 221.963 416.261C226.605 412.539 232.784 410.678 240.499 410.678C246.841 410.678 253.117 411.429 259.328 412.931V435.261H259.132L245.893 414.106C245.369 413.323 244.716 412.866 243.931 412.735C243.212 412.604 242.264 412.539 241.087 412.539C237.556 412.539 234.712 413.486 232.555 415.379C230.463 417.273 229.417 419.917 229.417 423.312C229.417 426.185 230.365 428.503 232.261 430.266C234.222 432.029 237.426 433.988 241.872 436.143L245.5 437.905C248.05 439.146 250.077 440.191 251.581 441.039C253.084 441.823 254.752 442.9 256.582 444.271C258.478 445.577 259.917 446.883 260.897 448.189C261.944 449.495 262.826 451.095 263.545 452.988C264.265 454.882 264.624 456.938 264.624 459.158Z" fill="#F8F8F8"/>
<path d="M321.274 451.911C321.274 454.261 321.209 458.179 321.078 463.663C321.013 469.083 320.98 472.347 320.98 473.457C320.98 474.437 321.307 475.22 321.961 475.808L326.766 480.313V480.509H299.306V480.313L303.916 475.808C304.569 475.22 304.896 474.469 304.896 473.555C304.896 473.359 304.929 470.552 304.994 465.132C305.125 459.648 305.191 455.992 305.191 454.163C305.191 449.266 304.635 445.577 303.523 443.096C302.477 440.615 300.549 439.375 297.737 439.375C294.86 439.375 292.409 440.844 290.382 443.782V473.457C290.382 474.437 290.709 475.22 291.362 475.808L296.168 480.313V480.509H268.708V480.313L273.513 475.808C274.102 475.22 274.396 474.437 274.396 473.457V418.807C274.396 417.763 274.102 416.946 273.513 416.359L268.708 411.854V411.658L290.382 409.111V442.704C293.062 435.065 298.26 431.246 305.975 431.246C310.944 431.246 314.736 433.008 317.351 436.534C319.967 440.06 321.274 445.186 321.274 451.911Z" fill="#F8F8F8"/>
<path d="M373.599 451.029C373.599 451.421 373.567 452.107 373.501 453.086C373.501 454 373.501 454.49 373.501 454.555L372.913 468.462C372.717 472.249 373.599 474.143 375.561 474.143C376.803 474.143 377.718 473.555 378.307 472.38H378.503C378.503 473.686 378.241 474.861 377.718 475.906C375.953 479.497 372.749 481.292 368.107 481.292C365.165 481.292 362.681 480.476 360.654 478.844C358.627 477.146 357.548 474.796 357.418 471.792C356.437 474.665 354.737 476.983 352.318 478.746C349.964 480.444 347.218 481.292 344.08 481.292C340.288 481.292 337.117 480.085 334.567 477.669C332.017 475.188 330.742 471.792 330.742 467.483C330.742 462.913 332.377 459.321 335.646 456.71C338.98 454.033 342.838 452.694 347.218 452.694C351.664 452.694 355.129 453.576 357.614 455.339L357.81 444.859V444.369C357.81 436.861 355.423 433.106 350.651 433.106C349.67 433.106 349.049 433.172 348.787 433.302C348.591 433.433 348.33 433.759 348.003 434.282L340.059 448.973H339.863L333.684 434.967C340.615 432.486 347.218 431.246 353.495 431.246C360.425 431.246 365.492 432.747 368.696 435.751C371.965 438.82 373.599 443.912 373.599 451.029ZM353.985 455.73C351.501 455.73 349.539 456.677 348.101 458.571C346.728 460.464 346.041 462.88 346.041 465.818C346.041 468.43 346.564 470.486 347.61 471.988C348.722 473.425 350.128 474.143 351.827 474.143C354.05 474.143 355.914 473 357.418 470.715V470.617L357.614 456.318C356.437 455.926 355.227 455.73 353.985 455.73Z" fill="#F8F8F8"/>
<path d="M386.827 495.787V439.57C386.827 438.591 386.533 437.775 385.945 437.122L381.139 432.225V432.029H402.813V442.411C406.017 434.967 411.084 431.246 418.014 431.246C423.506 431.246 427.952 433.433 431.352 437.807C434.817 442.117 436.55 447.928 436.55 455.241C436.55 463.01 434.588 469.311 430.665 474.143C426.743 478.909 421.774 481.292 415.759 481.292C409.024 481.292 404.709 478.811 402.813 473.849V495.2C402.813 495.853 402.879 496.31 403.009 496.571C403.205 496.832 403.63 497.191 404.284 497.648L411.542 502.643V502.839H381.139V502.643L385.945 498.138C386.533 497.55 386.827 496.767 386.827 495.787ZM410.169 439.081C407.292 439.081 404.84 440.615 402.813 443.684V473.163C404.317 474.796 406.442 475.612 409.188 475.612C411.999 475.612 414.418 474.012 416.445 470.813C418.537 467.548 419.583 462.619 419.583 456.024C419.583 444.729 416.445 439.081 410.169 439.081Z" fill="#F8F8F8"/>
<path d="M455.369 426.642C453.211 426.642 451.348 425.989 449.779 424.684C448.275 423.312 447.523 421.55 447.523 419.395C447.523 417.11 448.275 415.281 449.779 413.91C451.348 412.474 453.211 411.756 455.369 411.756C457.657 411.756 459.553 412.474 461.057 413.91C462.561 415.281 463.313 417.11 463.313 419.395C463.313 421.55 462.561 423.312 461.057 424.684C459.553 425.989 457.657 426.642 455.369 426.642ZM441.933 432.029H463.705V473.457C463.705 474.502 463.999 475.286 464.587 475.808L469.393 480.313V480.509H441.933V480.313L446.738 475.808C447.327 475.286 447.621 474.502 447.621 473.457V439.57C447.621 438.591 447.327 437.775 446.738 437.122L441.933 432.225V432.029Z" fill="#F8F8F8"/>
<path d="M526.919 451.911C526.919 454.261 526.853 458.179 526.723 463.663C526.657 469.083 526.625 472.347 526.625 473.457C526.625 474.437 526.919 475.22 527.507 475.808L532.411 480.313V480.509H504.853V480.313L509.56 475.808C510.149 475.22 510.443 474.469 510.443 473.555C510.443 473.359 510.476 470.552 510.541 465.132C510.672 459.648 510.737 455.992 510.737 454.163C510.737 449.266 510.214 445.577 509.168 443.096C508.122 440.615 506.16 439.375 503.284 439.375C500.407 439.375 497.988 440.811 496.026 443.684V473.457C496.026 474.502 496.321 475.286 496.909 475.808L501.714 480.313V480.509H474.254V480.313L479.06 475.808C479.648 475.286 479.943 474.502 479.943 473.457V439.57C479.943 438.591 479.648 437.775 479.06 437.122L474.254 432.225V432.029H496.026V442.411C498.707 434.967 503.905 431.246 511.62 431.246C516.523 431.246 520.283 433.008 522.898 436.534C525.579 440.06 526.919 445.186 526.919 451.911Z" fill="#F8F8F8"/>
<path d="M537.926 447.503C537.926 442.149 539.855 438.101 543.712 435.359C547.57 432.617 552.669 431.246 559.011 431.246C564.569 431.246 569.047 432.16 572.447 433.988C573.166 434.38 573.853 434.216 574.507 433.498L584.706 422.725L584.902 422.823V437.514H575.683C579.018 440.191 580.685 443.716 580.685 448.091C580.685 453.249 578.724 457.101 574.801 459.648C570.943 462.129 565.778 463.37 559.305 463.37C556.167 463.37 553.519 463.108 551.362 462.586C549.335 463.37 548.321 464.577 548.321 466.21C548.321 469.083 551.656 470.519 558.325 470.519H567.445C579.149 470.519 585 474.861 585 483.545C585 489.487 582.385 494.318 577.154 498.04C571.924 501.762 565.321 503.623 557.344 503.623C551.983 503.623 547.275 502.741 543.222 500.978C539.233 499.281 537.239 496.865 537.239 493.731C537.239 491.641 538.155 489.78 539.985 488.148C541.881 486.581 544.758 485.504 548.616 484.916C545.216 484.198 542.568 482.892 540.672 480.999C538.841 479.105 537.926 476.853 537.926 474.241C537.926 471.368 539.037 468.887 541.26 466.797C543.483 464.708 546.491 463.206 550.283 462.292C542.045 460.203 537.926 455.273 537.926 447.503ZM552.931 485.406C551.427 485.275 550.283 485.145 549.498 485.014C546.883 486.581 545.575 488.671 545.575 491.282C545.575 494.416 547.079 496.897 550.087 498.726C553.094 500.619 556.625 501.566 560.678 501.566C564.601 501.566 567.968 500.75 570.78 499.117C573.657 497.485 575.095 495.167 575.095 492.164C575.095 490.14 574.376 488.605 572.937 487.561C571.564 486.516 569.145 485.928 565.68 485.798L552.931 485.406ZM553.029 447.21C553.029 452.433 553.552 456.155 554.598 458.375C555.644 460.595 557.213 461.705 559.305 461.705C561.398 461.705 562.967 460.627 564.013 458.473C565.059 456.253 565.582 452.531 565.582 447.308C565.582 442.149 565.059 438.46 564.013 436.24C563.032 434.021 561.463 432.911 559.305 432.911C557.148 432.911 555.546 434.021 554.5 436.24C553.519 438.395 553.029 442.052 553.029 447.21Z" fill="#F8F8F8"/>
<path d="M282.025 536.241C279.868 536.241 278.004 535.588 276.435 534.282C274.932 532.911 274.18 531.148 274.18 528.993C274.18 526.708 274.932 524.88 276.435 523.509C278.004 522.072 279.868 521.354 282.025 521.354C284.314 521.354 286.21 522.072 287.714 523.509C289.217 524.88 289.969 526.708 289.969 528.993C289.969 531.148 289.217 532.911 287.714 534.282C286.21 535.588 284.314 536.241 282.025 536.241ZM268.59 541.628H290.361V583.056C290.361 584.1 290.656 584.884 291.244 585.406L296.05 589.912V590.107H268.59V589.912L273.395 585.406C273.984 584.884 274.278 584.1 274.278 583.056V549.169C274.278 548.189 273.984 547.373 273.395 546.72L268.59 541.823V541.628Z" fill="#F8F8F8"/>
<path d="M350.449 518.71V582.762C350.449 583.807 350.743 584.59 351.331 585.113L356.235 589.912V590.107H334.463V580.901C331.586 587.561 326.781 590.891 320.047 590.891C314.293 590.891 309.618 588.704 306.022 584.329C302.492 579.954 300.726 573.85 300.726 566.014C300.726 558.506 302.688 552.434 306.611 547.798C310.599 543.162 315.666 540.844 321.812 540.844C327.892 540.844 332.109 543.456 334.463 548.679V528.406C334.463 527.361 334.136 526.545 333.482 525.957L328.775 521.452V521.256L350.449 518.71ZM327.598 583.545C330.279 583.545 332.567 582.305 334.463 579.824V549.561C332.894 547.537 330.769 546.525 328.088 546.525C325.081 546.525 322.596 548.059 320.635 551.128C318.674 554.131 317.693 558.93 317.693 565.525C317.693 571.793 318.575 576.363 320.341 579.236C322.171 582.109 324.59 583.545 327.598 583.545Z" fill="#F8F8F8"/>
<path d="M406.238 563.664H376.817V563.86C376.817 569.867 378.125 574.372 380.74 577.375C383.355 580.314 386.722 581.783 390.841 581.783C397.772 581.783 402.74 578.779 405.748 572.772H405.944C403.46 584.851 396.235 590.891 384.27 590.891C377.536 590.891 371.848 588.802 367.206 584.623C362.564 580.444 360.243 574.307 360.243 566.21C360.243 557.657 362.564 551.291 367.206 547.112C371.848 542.933 377.732 540.844 384.859 540.844C387.605 540.844 390.187 541.203 392.606 541.921C395.026 542.64 397.281 543.75 399.373 545.251C401.531 546.753 403.231 548.908 404.473 551.715C405.715 554.458 406.336 557.722 406.336 561.509C406.336 562.162 406.304 562.88 406.238 563.664ZM384.663 542.705C382.113 542.705 380.184 544.207 378.876 547.21C377.569 550.148 376.882 555.045 376.817 561.901H391.233C391.299 561.052 391.331 560.073 391.331 558.963C391.331 552.891 390.743 548.679 389.566 546.329C388.455 543.913 386.82 542.705 384.663 542.705Z" fill="#F8F8F8"/>
<path d="M455.146 560.628C455.146 561.02 455.113 561.705 455.048 562.684C455.048 563.599 455.048 564.088 455.048 564.154L454.46 578.061C454.264 581.848 455.146 583.741 457.108 583.741C458.35 583.741 459.265 583.154 459.854 581.978H460.05C460.05 583.284 459.788 584.46 459.265 585.504C457.5 589.095 454.296 590.891 449.654 590.891C446.712 590.891 444.228 590.075 442.201 588.442C440.174 586.745 439.095 584.394 438.964 581.391C437.984 584.264 436.284 586.582 433.865 588.345C431.511 590.042 428.765 590.891 425.627 590.891C421.835 590.891 418.664 589.683 416.114 587.267C413.564 584.786 412.289 581.391 412.289 577.082C412.289 572.511 413.923 568.92 417.192 566.308C420.527 563.631 424.384 562.293 428.765 562.293C433.211 562.293 436.676 563.174 439.161 564.937L439.357 554.458V553.968C439.357 546.459 436.97 542.705 432.197 542.705C431.217 542.705 430.596 542.77 430.334 542.901C430.138 543.031 429.876 543.358 429.55 543.88L421.606 558.571H421.41L415.231 544.566C422.161 542.085 428.765 540.844 435.042 540.844C441.972 540.844 447.039 542.346 450.243 545.349C453.512 548.418 455.146 553.511 455.146 560.628ZM435.532 565.329C433.047 565.329 431.086 566.276 429.648 568.169C428.275 570.063 427.588 572.478 427.588 575.417C427.588 578.028 428.111 580.085 429.157 581.587C430.269 583.023 431.674 583.741 433.374 583.741C435.597 583.741 437.461 582.599 438.964 580.314V580.216L439.161 565.916C437.984 565.525 436.774 565.329 435.532 565.329Z" fill="#F8F8F8"/>
<path d="M491.893 581.978C491.893 580.085 491.207 578.583 489.834 577.473C488.526 576.363 486.074 574.992 482.478 573.36L475.809 570.226C469.467 567.222 466.296 562.587 466.296 556.318C466.296 551.617 468.094 547.863 471.69 545.055C475.286 542.248 480.19 540.844 486.401 540.844C492.155 540.844 497.908 541.726 503.662 543.488L498.17 557.69H497.974L490.324 544.076C489.736 543.097 488.984 542.607 488.068 542.607H486.695C484.407 542.607 482.511 543.195 481.007 544.37C479.503 545.545 478.752 547.243 478.752 549.463C478.752 551.487 479.438 553.119 480.811 554.36C482.249 555.6 484.57 556.939 487.774 558.375L494.051 561.117C497.581 562.619 500.262 564.382 502.093 566.406C503.989 568.43 504.937 571.173 504.937 574.633C504.937 579.791 502.943 583.807 498.954 586.68C494.966 589.487 489.637 590.891 482.969 590.891C476.692 590.891 470.677 589.879 464.923 587.855L470.317 572.674H470.514L478.359 587.855C478.752 588.704 479.438 589.128 480.419 589.128H482.674C485.486 589.128 487.709 588.475 489.343 587.169C491.043 585.863 491.893 584.133 491.893 581.978Z" fill="#F8F8F8"/>
<path d="M512.897 583.448C512.897 581.228 513.649 579.399 515.153 577.963C516.722 576.461 518.585 575.71 520.743 575.71C522.966 575.71 524.829 576.429 526.333 577.865C527.902 579.301 528.687 581.162 528.687 583.448C528.687 585.602 527.902 587.398 526.333 588.834C524.829 590.205 522.966 590.891 520.743 590.891C518.585 590.891 516.722 590.205 515.153 588.834C513.649 587.398 512.897 585.602 512.897 583.448Z" fill="#F8F8F8"/>
</svg>
