<svg width="1600" height="1200" viewBox="0 0 1600 1200" fill="none" xmlns="http://www.w3.org/2000/svg">
<path d="M498.961 617.271V617.114L504.224 612.164C504.696 611.693 504.932 611.064 504.932 610.279V569.034C504.932 568.249 504.696 567.62 504.224 567.149L498.961 562.2V562.043H525.2C534.104 562.043 540.86 564.399 545.469 569.113C550.078 573.774 552.382 580.216 552.382 588.439C552.382 597.552 549.868 604.649 544.84 609.729C539.865 614.757 532.821 617.271 523.708 617.271H498.961ZM520.801 615.7H522.451C527.426 615.7 530.961 613.552 533.056 609.258C535.204 604.911 536.277 598.338 536.277 589.539C536.277 580.845 535.23 574.35 533.135 570.056C531.092 565.761 527.714 563.614 523.001 563.614H520.487C519.91 563.614 519.544 563.719 519.387 563.928C519.23 564.085 519.151 564.478 519.151 565.106V614.128C519.151 614.862 519.23 615.307 519.387 615.464C519.596 615.621 520.068 615.7 520.801 615.7Z" fill="#F8F8F8"/>
<path d="M583.078 583.254C582.03 580.583 580.433 579.247 578.286 579.247C576.138 579.247 574.541 580.557 573.494 583.175C572.446 585.742 571.922 590.612 571.922 597.788C571.922 604.911 572.446 609.807 573.494 612.479C574.541 615.15 576.138 616.485 578.286 616.485C580.433 616.485 582.03 615.176 583.078 612.557C584.125 609.938 584.649 605.041 584.649 597.866C584.649 590.743 584.125 585.873 583.078 583.254ZM578.286 617.899C571.896 617.899 566.842 616.197 563.124 612.793C559.457 609.336 557.624 604.334 557.624 597.788C557.624 591.346 559.484 586.396 563.202 582.94C566.921 579.483 571.949 577.755 578.286 577.755C584.675 577.755 589.729 579.483 593.448 582.94C597.166 586.344 599.026 591.32 599.026 597.866C599.026 604.308 597.14 609.258 593.369 612.714C589.651 616.171 584.623 617.899 578.286 617.899Z" fill="#F8F8F8"/>
<path d="M645.262 594.331C645.262 596.216 645.21 599.359 645.105 603.758C645.053 608.105 645.027 610.724 645.027 611.614C645.027 612.4 645.262 613.028 645.734 613.5L649.662 617.114V617.271H627.586V617.114L631.357 613.5C631.829 613.028 632.064 612.426 632.064 611.693C632.064 611.536 632.09 609.284 632.143 604.937C632.247 600.537 632.3 597.604 632.3 596.138C632.3 592.21 631.881 589.251 631.043 587.261C630.205 585.27 628.634 584.275 626.329 584.275C624.025 584.275 622.087 585.427 620.516 587.732V611.614C620.516 612.452 620.751 613.081 621.223 613.5L625.072 617.114V617.271H603.075V617.114L606.925 613.5C607.396 613.081 607.632 612.452 607.632 611.614V584.432C607.632 583.647 607.396 582.992 606.925 582.468L603.075 578.54V578.383H620.516V586.711C622.663 580.74 626.827 577.755 633.007 577.755C636.935 577.755 639.946 579.169 642.041 581.997C644.189 584.825 645.262 588.937 645.262 594.331Z" fill="#F8F8F8"/>
<path d="M678.36 578.383V579.954H668.697V606.194C668.697 607.974 669.064 609.362 669.797 610.357C670.53 611.3 671.552 611.771 672.861 611.771C674.851 611.771 676.37 610.803 677.418 608.865L677.575 608.943C677.103 611.457 675.925 613.578 674.04 615.307C672.206 617.035 669.562 617.899 666.105 617.899C659.296 617.899 655.892 614.312 655.892 607.136V579.954H651.571V578.383H655.106C656.206 578.383 657.018 578.095 657.542 577.519L668.54 565.185H668.697V578.383H678.36Z" fill="#F8F8F8"/>
<path d="M682.113 566.599C682.113 565.08 682.611 563.823 683.606 562.828C684.654 561.781 685.963 561.257 687.534 561.257C689.315 561.257 690.755 561.859 691.855 563.064C693.007 564.268 693.583 565.892 693.583 567.935C693.583 571.077 692.51 573.984 690.362 576.655C688.267 579.274 685.57 580.976 682.271 581.761L682.192 581.604C683.763 580.819 685.046 579.64 686.042 578.069C687.089 576.445 687.613 574.743 687.613 572.963C687.613 572.386 687.272 572.02 686.591 571.863C685.23 571.601 684.13 571.025 683.292 570.134C682.506 569.192 682.113 568.013 682.113 566.599Z" fill="#F8F8F8"/>
<path d="M723.775 578.383V579.954H714.112V606.194C714.112 607.974 714.479 609.362 715.212 610.357C715.945 611.3 716.967 611.771 718.276 611.771C720.266 611.771 721.785 610.803 722.832 608.865L722.99 608.943C722.518 611.457 721.34 613.578 719.454 615.307C717.621 617.035 714.976 617.899 711.52 617.899C704.711 617.899 701.307 614.312 701.307 607.136V579.954H696.986V578.383H700.521C701.621 578.383 702.433 578.095 702.957 577.519L713.955 565.185H714.112V578.383H723.775Z" fill="#F8F8F8"/>
<path d="M768.96 578.383V579.954H759.297V606.194C759.297 607.974 759.664 609.362 760.397 610.357C761.13 611.3 762.151 611.771 763.461 611.771C765.451 611.771 766.97 610.803 768.017 608.865L768.174 608.943C767.703 611.457 766.524 613.578 764.639 615.307C762.806 617.035 760.161 617.899 756.704 617.899C749.896 617.899 746.491 614.312 746.491 607.136V579.954H742.171V578.383H745.706C746.806 578.383 747.618 578.095 748.141 577.519L759.14 565.185H759.297V578.383H768.96Z" fill="#F8F8F8"/>
<path d="M796.616 583.254C795.568 580.583 793.971 579.247 791.823 579.247C789.676 579.247 788.079 580.557 787.031 583.175C785.984 585.742 785.46 590.612 785.46 597.788C785.46 604.911 785.984 609.807 787.031 612.479C788.079 615.15 789.676 616.485 791.823 616.485C793.971 616.485 795.568 615.176 796.616 612.557C797.663 609.938 798.187 605.041 798.187 597.866C798.187 590.743 797.663 585.873 796.616 583.254ZM791.823 617.899C785.434 617.899 780.38 616.197 776.661 612.793C772.995 609.336 771.162 604.334 771.162 597.788C771.162 591.346 773.021 586.396 776.74 582.94C780.458 579.483 785.486 577.755 791.823 577.755C798.213 577.755 803.267 579.483 806.986 582.94C810.704 586.344 812.563 591.32 812.563 597.866C812.563 604.308 810.678 609.258 806.907 612.714C803.189 616.171 798.161 617.899 791.823 617.899Z" fill="#F8F8F8"/>
<path d="M857.057 578.383V611.3C857.057 612.19 857.293 612.845 857.764 613.264L861.692 617.114V617.271H844.173V608.865C843.178 611.641 841.633 613.84 839.538 615.464C837.443 617.087 834.981 617.899 832.153 617.899C828.278 617.899 825.319 616.511 823.276 613.735C821.233 610.96 820.212 606.901 820.212 601.559C820.212 598.573 820.264 592.838 820.369 584.354C820.369 583.568 820.134 582.94 819.662 582.468L815.813 578.54V578.383H833.175L833.096 588.753C833.096 595.667 833.096 599.333 833.096 599.752C833.096 603.575 833.489 606.482 834.274 608.472C835.06 610.462 836.474 611.457 838.517 611.457C840.664 611.457 842.549 610.279 844.173 607.922V584.432C844.173 583.647 843.937 582.992 843.466 582.468L839.617 578.54V578.383H857.057Z" fill="#F8F8F8"/>
<path d="M883.211 617.899C878.131 617.899 873.81 616.197 870.248 612.793C866.687 609.388 864.906 604.544 864.906 598.259C864.906 594.645 865.509 591.477 866.713 588.753C867.918 585.977 869.541 583.83 871.584 582.311C873.627 580.74 875.826 579.588 878.183 578.855C880.592 578.121 883.132 577.755 885.803 577.755C889.993 577.755 894.445 578.54 899.159 580.112L894.131 593.624H893.974L887.925 580.19C887.767 579.771 887.61 579.509 887.453 579.404C887.296 579.3 886.982 579.247 886.511 579.247H886.118C881.142 579.247 878.654 584.328 878.654 594.488C878.654 600.04 879.65 604.099 881.64 606.665C883.682 609.231 886.222 610.515 889.26 610.515C893.45 610.515 896.671 608.367 898.923 604.073H899.08C898.399 608.42 896.697 611.824 893.974 614.285C891.25 616.695 887.663 617.899 883.211 617.899Z" fill="#F8F8F8"/>
<path d="M944.701 594.331C944.701 596.216 944.648 599.359 944.544 603.758C944.491 608.105 944.465 610.724 944.465 611.614C944.465 612.4 944.727 613.028 945.251 613.5L949.1 617.114V617.271H927.103V617.114L930.795 613.5C931.319 613.028 931.581 612.426 931.581 611.693C931.581 611.536 931.607 609.284 931.66 604.937C931.764 600.537 931.817 597.604 931.817 596.138C931.817 592.21 931.372 589.251 930.481 587.261C929.643 585.27 928.098 584.275 925.846 584.275C923.542 584.275 921.578 585.454 919.954 587.81V611.614C919.954 612.4 920.216 613.028 920.74 613.5L924.589 617.114V617.271H902.592V617.114L906.442 613.5C906.913 613.028 907.149 612.4 907.149 611.614V567.778C907.149 566.94 906.913 566.285 906.442 565.813L902.592 562.2V562.043L919.954 560V586.946C922.101 580.819 926.265 577.755 932.445 577.755C936.426 577.755 939.463 579.169 941.558 581.997C943.653 584.825 944.701 588.937 944.701 594.331Z" fill="#F8F8F8"/>
<path d="M1036.05 594.331C1036.05 596.374 1036 599.542 1035.89 603.837C1035.84 608.131 1035.82 610.724 1035.82 611.614C1035.82 612.4 1036.08 613.028 1036.6 613.5L1040.45 617.114V617.271H1018.45V617.114L1022.15 613.5C1022.67 612.976 1022.93 612.374 1022.93 611.693C1022.93 611.483 1022.96 609.205 1023.01 604.858C1023.12 600.511 1023.17 597.604 1023.17 596.138C1023.17 592.21 1022.72 589.251 1021.83 587.261C1020.99 585.27 1019.42 584.275 1017.12 584.275C1014.71 584.275 1012.64 585.401 1010.91 587.653C1011.38 589.591 1011.62 591.817 1011.62 594.331C1011.62 596.216 1011.57 599.359 1011.46 603.758C1011.41 608.105 1011.38 610.724 1011.38 611.614C1011.38 612.4 1011.62 613.028 1012.09 613.5L1016.02 617.114V617.271H993.943V617.114L997.714 613.5C998.185 613.028 998.421 612.426 998.421 611.693C998.421 611.536 998.447 609.284 998.499 604.937C998.604 600.537 998.657 597.604 998.657 596.138C998.657 592.21 998.237 589.251 997.4 587.261C996.562 585.27 994.99 584.275 992.686 584.275C990.381 584.275 988.444 585.427 986.872 587.732V611.614C986.872 612.452 987.108 613.081 987.579 613.5L991.429 617.114V617.271H969.432V617.114L973.281 613.5C973.753 613.081 973.988 612.452 973.988 611.614V584.432C973.988 583.647 973.753 582.992 973.281 582.468L969.432 578.54V578.383H986.872V586.711C989.02 580.74 993.183 577.755 999.364 577.755C1005.28 577.755 1009.08 580.845 1010.75 587.025C1011.7 584.301 1013.32 582.076 1015.63 580.347C1017.93 578.619 1020.68 577.755 1023.87 577.755C1027.8 577.755 1030.81 579.169 1032.91 581.997C1035 584.825 1036.05 588.937 1036.05 594.331Z" fill="#F8F8F8"/>
<path d="M1080.66 596.059H1057.09V596.216C1057.09 601.035 1058.14 604.649 1060.23 607.058C1062.33 609.415 1065.02 610.593 1068.32 610.593C1073.87 610.593 1077.85 608.184 1080.26 603.365H1080.42C1078.43 613.055 1072.64 617.899 1063.06 617.899C1057.66 617.899 1053.11 616.223 1049.39 612.871C1045.67 609.519 1043.81 604.596 1043.81 598.102C1043.81 591.241 1045.67 586.135 1049.39 582.783C1053.11 579.431 1057.82 577.755 1063.53 577.755C1065.73 577.755 1067.8 578.043 1069.74 578.619C1071.67 579.195 1073.48 580.085 1075.16 581.29C1076.89 582.495 1078.25 584.223 1079.24 586.475C1080.24 588.675 1080.74 591.293 1080.74 594.331C1080.74 594.855 1080.71 595.431 1080.66 596.059ZM1063.37 579.247C1061.33 579.247 1059.79 580.452 1058.74 582.861C1057.69 585.218 1057.14 589.146 1057.09 594.645H1068.64C1068.69 593.964 1068.72 593.179 1068.72 592.288C1068.72 587.418 1068.24 584.04 1067.3 582.154C1066.41 580.216 1065.1 579.247 1063.37 579.247Z" fill="#F8F8F8"/>
<path d="M1085.77 611.929C1085.77 610.148 1086.38 608.681 1087.58 607.529C1088.84 606.325 1090.33 605.722 1092.06 605.722C1093.84 605.722 1095.33 606.298 1096.54 607.451C1097.79 608.603 1098.42 610.096 1098.42 611.929C1098.42 613.657 1097.79 615.097 1096.54 616.249C1095.33 617.349 1093.84 617.899 1092.06 617.899C1090.33 617.899 1088.84 617.349 1087.58 616.249C1086.38 615.097 1085.77 613.657 1085.77 611.929Z" fill="#F8F8F8"/>
</svg>
