<svg width="1600" height="1200" viewBox="0 0 1600 1200" fill="none" xmlns="http://www.w3.org/2000/svg">
<path d="M218.803 177.4C218.803 173.533 217.403 170.467 214.603 168.2C211.936 165.933 206.936 163.133 199.603 159.8L186.003 153.4C173.07 147.267 166.603 137.8 166.603 125C166.603 115.4 170.27 107.733 177.603 102C184.936 96.2667 194.936 93.4 207.603 93.4C219.336 93.4 231.07 95.2 242.803 98.8L231.603 127.8H231.203L215.603 100C214.403 98 212.87 97 211.003 97H208.203C203.536 97 199.67 98.2 196.603 100.6C193.536 103 192.003 106.467 192.003 111C192.003 115.133 193.403 118.467 196.203 121C199.136 123.533 203.87 126.267 210.403 129.2L223.203 134.8C230.403 137.867 235.87 141.467 239.603 145.6C243.47 149.733 245.403 155.333 245.403 162.4C245.403 172.933 241.336 181.133 233.203 187C225.07 192.733 214.203 195.6 200.603 195.6C187.803 195.6 175.536 193.533 163.803 189.4L174.803 158.4H175.203L191.203 189.4C192.003 191.133 193.403 192 195.403 192H200.003C205.736 192 210.27 190.667 213.603 188C217.07 185.333 218.803 181.8 218.803 177.4ZM362.242 135.6C362.242 140.4 362.109 148.4 361.842 159.6C361.709 170.667 361.642 177.333 361.642 179.6C361.642 181.6 362.309 183.2 363.642 184.4L373.442 193.6V194H317.442V193.6L326.842 184.4C328.176 183.2 328.842 181.667 328.842 179.8C328.842 179.4 328.909 173.667 329.042 162.6C329.309 151.4 329.442 143.933 329.442 140.2C329.442 130.2 328.309 122.667 326.042 117.6C323.909 112.533 319.976 110 314.242 110C308.376 110 303.376 113 299.242 119V179.6C299.242 181.6 299.909 183.2 301.242 184.4L311.042 193.6V194H255.042V193.6L264.842 184.4C266.042 183.2 266.642 181.6 266.642 179.6V68C266.642 65.8667 266.042 64.2 264.842 63L255.042 53.8V53.4L299.242 48.2V116.8C304.709 101.2 315.309 93.4 331.042 93.4C341.176 93.4 348.909 97 354.242 104.2C359.576 111.4 362.242 121.867 362.242 135.6ZM468.95 133.8C468.95 134.6 468.883 136 468.75 138C468.75 139.867 468.75 140.867 468.75 141L467.55 169.4C467.15 177.133 468.95 181 472.95 181C475.483 181 477.35 179.8 478.55 177.4H478.95C478.95 180.067 478.417 182.467 477.35 184.6C473.75 191.933 467.217 195.6 457.75 195.6C451.75 195.6 446.683 193.933 442.55 190.6C438.417 187.133 436.217 182.333 435.95 176.2C433.95 182.067 430.483 186.8 425.55 190.4C420.75 193.867 415.15 195.6 408.75 195.6C401.017 195.6 394.55 193.133 389.35 188.2C384.15 183.133 381.55 176.2 381.55 167.4C381.55 158.067 384.883 150.733 391.55 145.4C398.35 139.933 406.217 137.2 415.15 137.2C424.217 137.2 431.283 139 436.35 142.6L436.75 121.2V120.2C436.75 104.867 431.883 97.2 422.15 97.2C420.15 97.2 418.883 97.3333 418.35 97.6C417.95 97.8667 417.417 98.5333 416.75 99.6L400.55 129.6H400.15L387.55 101C401.683 95.9333 415.15 93.4 427.95 93.4C442.083 93.4 452.417 96.4667 458.95 102.6C465.617 108.867 468.95 119.267 468.95 133.8ZM428.95 143.4C423.883 143.4 419.883 145.333 416.95 149.2C414.15 153.067 412.75 158 412.75 164C412.75 169.333 413.817 173.533 415.95 176.6C418.217 179.533 421.083 181 424.55 181C429.083 181 432.883 178.667 435.95 174V173.8L436.35 144.6C433.95 143.8 431.483 143.4 428.95 143.4ZM495.927 225.2V110.4C495.927 108.4 495.327 106.733 494.127 105.4L484.327 95.4V95H528.527V116.2C535.06 101 545.393 93.4 559.527 93.4C570.727 93.4 579.793 97.8667 586.727 106.8C593.793 115.6 597.327 127.467 597.327 142.4C597.327 158.267 593.327 171.133 585.327 181C577.327 190.733 567.193 195.6 554.927 195.6C541.193 195.6 532.393 190.533 528.527 180.4V224C528.527 225.333 528.66 226.267 528.927 226.8C529.327 227.333 530.193 228.067 531.527 229L546.327 239.2V239.6H484.327V239.2L494.127 230C495.327 228.8 495.927 227.2 495.927 225.2ZM543.527 109.4C537.66 109.4 532.66 112.533 528.527 118.8V179C531.593 182.333 535.927 184 541.527 184C547.26 184 552.193 180.733 556.327 174.2C560.593 167.533 562.727 157.467 562.727 144C562.727 120.933 556.327 109.4 543.527 109.4ZM635.705 84C631.305 84 627.505 82.6667 624.305 80C621.238 77.2 619.705 73.6 619.705 69.2C619.705 64.5333 621.238 60.8 624.305 58C627.505 55.0667 631.305 53.6 635.705 53.6C640.371 53.6 644.238 55.0667 647.305 58C650.371 60.8 651.905 64.5333 651.905 69.2C651.905 73.6 650.371 77.2 647.305 80C644.238 82.6667 640.371 84 635.705 84ZM608.305 95H652.705V179.6C652.705 181.733 653.305 183.333 654.505 184.4L664.305 193.6V194H608.305V193.6L618.105 184.4C619.305 183.333 619.905 181.733 619.905 179.6V110.4C619.905 108.4 619.305 106.733 618.105 105.4L608.305 95.4V95ZM781.619 135.6C781.619 140.4 781.485 148.4 781.219 159.6C781.085 170.667 781.019 177.333 781.019 179.6C781.019 181.6 781.619 183.2 782.819 184.4L792.819 193.6V194H736.619V193.6L746.219 184.4C747.419 183.2 748.019 181.667 748.019 179.8C748.019 179.4 748.085 173.667 748.219 162.6C748.485 151.4 748.619 143.933 748.619 140.2C748.619 130.2 747.552 122.667 745.419 117.6C743.285 112.533 739.285 110 733.419 110C727.552 110 722.619 112.933 718.619 118.8V179.6C718.619 181.733 719.219 183.333 720.419 184.4L730.219 193.6V194H674.219V193.6L684.019 184.4C685.219 183.333 685.819 181.733 685.819 179.6V110.4C685.819 108.4 685.219 106.733 684.019 105.4L674.219 95.4V95H718.619V116.2C724.085 101 734.685 93.4 750.419 93.4C760.419 93.4 768.085 97 773.419 104.2C778.885 111.4 781.619 121.867 781.619 135.6ZM804.066 126.6C804.066 115.667 807.999 107.4 815.866 101.8C823.732 96.2 834.132 93.4 847.066 93.4C858.399 93.4 867.532 95.2667 874.466 99C875.932 99.8 877.332 99.4667 878.666 98L899.466 76L899.866 76.2V106.2H881.066C887.866 111.667 891.266 118.867 891.266 127.8C891.266 138.333 887.266 146.2 879.266 151.4C871.399 156.467 860.866 159 847.666 159C841.266 159 835.866 158.467 831.466 157.4C827.332 159 825.266 161.467 825.266 164.8C825.266 170.667 832.066 173.6 845.666 173.6H864.266C888.132 173.6 900.066 182.467 900.066 200.2C900.066 212.333 894.732 222.2 884.066 229.8C873.399 237.4 859.932 241.2 843.666 241.2C832.732 241.2 823.132 239.4 814.866 235.8C806.732 232.333 802.666 227.4 802.666 221C802.666 216.733 804.532 212.933 808.266 209.6C812.132 206.4 817.999 204.2 825.866 203C818.932 201.533 813.532 198.867 809.666 195C805.932 191.133 804.066 186.533 804.066 181.2C804.066 175.333 806.332 170.267 810.866 166C815.399 161.733 821.532 158.667 829.266 156.8C812.466 152.533 804.066 142.467 804.066 126.6ZM834.666 204C831.599 203.733 829.266 203.467 827.666 203.2C822.332 206.4 819.666 210.667 819.666 216C819.666 222.4 822.732 227.467 828.866 231.2C834.999 235.067 842.199 237 850.466 237C858.466 237 865.332 235.333 871.066 232C876.932 228.667 879.866 223.933 879.866 217.8C879.866 213.667 878.399 210.533 875.466 208.4C872.666 206.267 867.732 205.067 860.666 204.8L834.666 204ZM834.866 126C834.866 136.667 835.932 144.267 838.066 148.8C840.199 153.333 843.399 155.6 847.666 155.6C851.932 155.6 855.132 153.4 857.266 149C859.399 144.467 860.466 136.867 860.466 126.2C860.466 115.667 859.399 108.133 857.266 103.6C855.266 99.0667 852.066 96.8 847.666 96.8C843.266 96.8 839.999 99.0667 837.866 103.6C835.866 108 834.866 115.467 834.866 126ZM981.197 84C976.797 84 972.997 82.6667 969.797 80C966.73 77.2 965.197 73.6 965.197 69.2C965.197 64.5333 966.73 60.8 969.797 58C972.997 55.0667 976.797 53.6 981.197 53.6C985.864 53.6 989.73 55.0667 992.797 58C995.864 60.8 997.397 64.5333 997.397 69.2C997.397 73.6 995.864 77.2 992.797 80C989.73 82.6667 985.864 84 981.197 84ZM953.797 95H998.197V179.6C998.197 181.733 998.797 183.333 999.997 184.4L1009.8 193.6V194H953.797V193.6L963.597 184.4C964.797 183.333 965.397 181.733 965.397 179.6V110.4C965.397 108.4 964.797 106.733 963.597 105.4L953.797 95.4V95ZM1120.73 48.2V179C1120.73 181.133 1121.33 182.733 1122.53 183.8L1132.53 193.6V194H1088.13V175.2C1082.27 188.8 1072.47 195.6 1058.73 195.6C1047 195.6 1037.47 191.133 1030.13 182.2C1022.93 173.267 1019.33 160.8 1019.33 144.8C1019.33 129.467 1023.33 117.067 1031.33 107.6C1039.47 98.1333 1049.8 93.4 1062.33 93.4C1074.73 93.4 1083.33 98.7333 1088.13 109.4V68C1088.13 65.8667 1087.47 64.2 1086.13 63L1076.53 53.8V53.4L1120.73 48.2ZM1074.13 180.6C1079.6 180.6 1084.27 178.067 1088.13 173V111.2C1084.93 107.067 1080.6 105 1075.13 105C1069 105 1063.93 108.133 1059.93 114.4C1055.93 120.533 1053.93 130.333 1053.93 143.8C1053.93 156.6 1055.73 165.933 1059.33 171.8C1063.07 177.667 1068 180.6 1074.13 180.6ZM1234.51 140H1174.51V140.4C1174.51 152.667 1177.17 161.867 1182.51 168C1187.84 174 1194.71 177 1203.11 177C1217.24 177 1227.37 170.867 1233.51 158.6H1233.91C1228.84 183.267 1214.11 195.6 1189.71 195.6C1175.97 195.6 1164.37 191.333 1154.91 182.8C1145.44 174.267 1140.71 161.733 1140.71 145.2C1140.71 127.733 1145.44 114.733 1154.91 106.2C1164.37 97.6667 1176.37 93.4 1190.91 93.4C1196.51 93.4 1201.77 94.1333 1206.71 95.6C1211.64 97.0667 1216.24 99.3333 1220.51 102.4C1224.91 105.467 1228.37 109.867 1230.91 115.6C1233.44 121.2 1234.71 127.867 1234.71 135.6C1234.71 136.933 1234.64 138.4 1234.51 140ZM1190.51 97.2C1185.31 97.2 1181.37 100.267 1178.71 106.4C1176.04 112.4 1174.64 122.4 1174.51 136.4H1203.91C1204.04 134.667 1204.11 132.667 1204.11 130.4C1204.11 118 1202.91 109.4 1200.51 104.6C1198.24 99.6667 1194.91 97.2 1190.51 97.2ZM1334.25 133.8C1334.25 134.6 1334.18 136 1334.05 138C1334.05 139.867 1334.05 140.867 1334.05 141L1332.85 169.4C1332.45 177.133 1334.25 181 1338.25 181C1340.78 181 1342.65 179.8 1343.85 177.4H1344.25C1344.25 180.067 1343.71 182.467 1342.65 184.6C1339.05 191.933 1332.51 195.6 1323.05 195.6C1317.05 195.6 1311.98 193.933 1307.85 190.6C1303.71 187.133 1301.51 182.333 1301.25 176.2C1299.25 182.067 1295.78 186.8 1290.85 190.4C1286.05 193.867 1280.45 195.6 1274.05 195.6C1266.31 195.6 1259.85 193.133 1254.65 188.2C1249.45 183.133 1246.85 176.2 1246.85 167.4C1246.85 158.067 1250.18 150.733 1256.85 145.4C1263.65 139.933 1271.51 137.2 1280.45 137.2C1289.51 137.2 1296.58 139 1301.65 142.6L1302.05 121.2V120.2C1302.05 104.867 1297.18 97.2 1287.45 97.2C1285.45 97.2 1284.18 97.3333 1283.65 97.6C1283.25 97.8667 1282.71 98.5333 1282.05 99.6L1265.85 129.6H1265.45L1252.85 101C1266.98 95.9333 1280.45 93.4 1293.25 93.4C1307.38 93.4 1317.71 96.4667 1324.25 102.6C1330.91 108.867 1334.25 119.267 1334.25 133.8ZM1294.25 143.4C1289.18 143.4 1285.18 145.333 1282.25 149.2C1279.45 153.067 1278.05 158 1278.05 164C1278.05 169.333 1279.11 173.533 1281.25 176.6C1283.51 179.533 1286.38 181 1289.85 181C1294.38 181 1298.18 178.667 1301.25 174V173.8L1301.65 144.6C1299.25 143.8 1296.78 143.4 1294.25 143.4ZM1409.19 177.4C1409.19 173.533 1407.79 170.467 1404.99 168.2C1402.32 165.933 1397.32 163.133 1389.99 159.8L1376.39 153.4C1363.45 147.267 1356.99 137.8 1356.99 125C1356.99 115.4 1360.65 107.733 1367.99 102C1375.32 96.2667 1385.32 93.4 1397.99 93.4C1409.72 93.4 1421.45 95.2 1433.19 98.8L1421.99 127.8H1421.59L1405.99 100C1404.79 98 1403.25 97 1401.39 97H1398.59C1393.92 97 1390.05 98.2 1386.99 100.6C1383.92 103 1382.39 106.467 1382.39 111C1382.39 115.133 1383.79 118.467 1386.59 121C1389.52 123.533 1394.25 126.267 1400.79 129.2L1413.59 134.8C1420.79 137.867 1426.25 141.467 1429.99 145.6C1433.85 149.733 1435.79 155.333 1435.79 162.4C1435.79 172.933 1431.72 181.133 1423.59 187C1415.45 192.733 1404.59 195.6 1390.99 195.6C1378.19 195.6 1365.92 193.533 1354.19 189.4L1365.19 158.4H1365.59L1381.59 189.4C1382.39 191.133 1383.79 192 1385.79 192H1390.39C1396.12 192 1400.65 190.667 1403.99 188C1407.45 185.333 1409.19 181.8 1409.19 177.4ZM218.803 401.4C218.803 397.533 217.403 394.467 214.603 392.2C211.936 389.933 206.936 387.133 199.603 383.8L186.003 377.4C173.07 371.267 166.603 361.8 166.603 349C166.603 339.4 170.27 331.733 177.603 326C184.936 320.267 194.936 317.4 207.603 317.4C219.336 317.4 231.07 319.2 242.803 322.8L231.603 351.8H231.203L215.603 324C214.403 322 212.87 321 211.003 321H208.203C203.536 321 199.67 322.2 196.603 324.6C193.536 327 192.003 330.467 192.003 335C192.003 339.133 193.403 342.467 196.203 345C199.136 347.533 203.87 350.267 210.403 353.2L223.203 358.8C230.403 361.867 235.87 365.467 239.603 369.6C243.47 373.733 245.403 379.333 245.403 386.4C245.403 396.933 241.336 405.133 233.203 411C225.07 416.733 214.203 419.6 200.603 419.6C187.803 419.6 175.536 417.533 163.803 413.4L174.803 382.4H175.203L191.203 413.4C192.003 415.133 193.403 416 195.403 416H200.003C205.736 416 210.27 414.667 213.603 412C217.07 409.333 218.803 405.8 218.803 401.4ZM362.242 359.6C362.242 364.4 362.109 372.4 361.842 383.6C361.709 394.667 361.642 401.333 361.642 403.6C361.642 405.6 362.309 407.2 363.642 408.4L373.442 417.6V418H317.442V417.6L326.842 408.4C328.176 407.2 328.842 405.667 328.842 403.8C328.842 403.4 328.909 397.667 329.042 386.6C329.309 375.4 329.442 367.933 329.442 364.2C329.442 354.2 328.309 346.667 326.042 341.6C323.909 336.533 319.976 334 314.242 334C308.376 334 303.376 337 299.242 343V403.6C299.242 405.6 299.909 407.2 301.242 408.4L311.042 417.6V418H255.042V417.6L264.842 408.4C266.042 407.2 266.642 405.6 266.642 403.6V292C266.642 289.867 266.042 288.2 264.842 287L255.042 277.8V277.4L299.242 272.2V340.8C304.709 325.2 315.309 317.4 331.042 317.4C341.176 317.4 348.909 321 354.242 328.2C359.576 335.4 362.242 345.867 362.242 359.6ZM468.95 357.8C468.95 358.6 468.883 360 468.75 362C468.75 363.867 468.75 364.867 468.75 365L467.55 393.4C467.15 401.133 468.95 405 472.95 405C475.483 405 477.35 403.8 478.55 401.4H478.95C478.95 404.067 478.417 406.467 477.35 408.6C473.75 415.933 467.217 419.6 457.75 419.6C451.75 419.6 446.683 417.933 442.55 414.6C438.417 411.133 436.217 406.333 435.95 400.2C433.95 406.067 430.483 410.8 425.55 414.4C420.75 417.867 415.15 419.6 408.75 419.6C401.017 419.6 394.55 417.133 389.35 412.2C384.15 407.133 381.55 400.2 381.55 391.4C381.55 382.067 384.883 374.733 391.55 369.4C398.35 363.933 406.217 361.2 415.15 361.2C424.217 361.2 431.283 363 436.35 366.6L436.75 345.2V344.2C436.75 328.867 431.883 321.2 422.15 321.2C420.15 321.2 418.883 321.333 418.35 321.6C417.95 321.867 417.417 322.533 416.75 323.6L400.55 353.6H400.15L387.55 325C401.683 319.933 415.15 317.4 427.95 317.4C442.083 317.4 452.417 320.467 458.95 326.6C465.617 332.867 468.95 343.267 468.95 357.8ZM428.95 367.4C423.883 367.4 419.883 369.333 416.95 373.2C414.15 377.067 412.75 382 412.75 388C412.75 393.333 413.817 397.533 415.95 400.6C418.217 403.533 421.083 405 424.55 405C429.083 405 432.883 402.667 435.95 398V397.8L436.35 368.6C433.95 367.8 431.483 367.4 428.95 367.4ZM495.927 449.2V334.4C495.927 332.4 495.327 330.733 494.127 329.4L484.327 319.4V319H528.527V340.2C535.06 325 545.393 317.4 559.527 317.4C570.727 317.4 579.793 321.867 586.727 330.8C593.793 339.6 597.327 351.467 597.327 366.4C597.327 382.267 593.327 395.133 585.327 405C577.327 414.733 567.193 419.6 554.927 419.6C541.193 419.6 532.393 414.533 528.527 404.4V448C528.527 449.333 528.66 450.267 528.927 450.8C529.327 451.333 530.193 452.067 531.527 453L546.327 463.2V463.6H484.327V463.2L494.127 454C495.327 452.8 495.927 451.2 495.927 449.2ZM543.527 333.4C537.66 333.4 532.66 336.533 528.527 342.8V403C531.593 406.333 535.927 408 541.527 408C547.26 408 552.193 404.733 556.327 398.2C560.593 391.533 562.727 381.467 562.727 368C562.727 344.933 556.327 333.4 543.527 333.4ZM635.705 308C631.305 308 627.505 306.667 624.305 304C621.238 301.2 619.705 297.6 619.705 293.2C619.705 288.533 621.238 284.8 624.305 282C627.505 279.067 631.305 277.6 635.705 277.6C640.371 277.6 644.238 279.067 647.305 282C650.371 284.8 651.905 288.533 651.905 293.2C651.905 297.6 650.371 301.2 647.305 304C644.238 306.667 640.371 308 635.705 308ZM608.305 319H652.705V403.6C652.705 405.733 653.305 407.333 654.505 408.4L664.305 417.6V418H608.305V417.6L618.105 408.4C619.305 407.333 619.905 405.733 619.905 403.6V334.4C619.905 332.4 619.305 330.733 618.105 329.4L608.305 319.4V319ZM781.619 359.6C781.619 364.4 781.485 372.4 781.219 383.6C781.085 394.667 781.019 401.333 781.019 403.6C781.019 405.6 781.619 407.2 782.819 408.4L792.819 417.6V418H736.619V417.6L746.219 408.4C747.419 407.2 748.019 405.667 748.019 403.8C748.019 403.4 748.085 397.667 748.219 386.6C748.485 375.4 748.619 367.933 748.619 364.2C748.619 354.2 747.552 346.667 745.419 341.6C743.285 336.533 739.285 334 733.419 334C727.552 334 722.619 336.933 718.619 342.8V403.6C718.619 405.733 719.219 407.333 720.419 408.4L730.219 417.6V418H674.219V417.6L684.019 408.4C685.219 407.333 685.819 405.733 685.819 403.6V334.4C685.819 332.4 685.219 330.733 684.019 329.4L674.219 319.4V319H718.619V340.2C724.085 325 734.685 317.4 750.419 317.4C760.419 317.4 768.085 321 773.419 328.2C778.885 335.4 781.619 345.867 781.619 359.6ZM804.066 350.6C804.066 339.667 807.999 331.4 815.866 325.8C823.732 320.2 834.132 317.4 847.066 317.4C858.399 317.4 867.532 319.267 874.466 323C875.932 323.8 877.332 323.467 878.666 322L899.466 300L899.866 300.2V330.2H881.066C887.866 335.667 891.266 342.867 891.266 351.8C891.266 362.333 887.266 370.2 879.266 375.4C871.399 380.467 860.866 383 847.666 383C841.266 383 835.866 382.467 831.466 381.4C827.332 383 825.266 385.467 825.266 388.8C825.266 394.667 832.066 397.6 845.666 397.6H864.266C888.132 397.6 900.066 406.467 900.066 424.2C900.066 436.333 894.732 446.2 884.066 453.8C873.399 461.4 859.932 465.2 843.666 465.2C832.732 465.2 823.132 463.4 814.866 459.8C806.732 456.333 802.666 451.4 802.666 445C802.666 440.733 804.532 436.933 808.266 433.6C812.132 430.4 817.999 428.2 825.866 427C818.932 425.533 813.532 422.867 809.666 419C805.932 415.133 804.066 410.533 804.066 405.2C804.066 399.333 806.332 394.267 810.866 390C815.399 385.733 821.532 382.667 829.266 380.8C812.466 376.533 804.066 366.467 804.066 350.6ZM834.666 428C831.599 427.733 829.266 427.467 827.666 427.2C822.332 430.4 819.666 434.667 819.666 440C819.666 446.4 822.732 451.467 828.866 455.2C834.999 459.067 842.199 461 850.466 461C858.466 461 865.332 459.333 871.066 456C876.932 452.667 879.866 447.933 879.866 441.8C879.866 437.667 878.399 434.533 875.466 432.4C872.666 430.267 867.732 429.067 860.666 428.8L834.666 428ZM834.866 350C834.866 360.667 835.932 368.267 838.066 372.8C840.199 377.333 843.399 379.6 847.666 379.6C851.932 379.6 855.132 377.4 857.266 373C859.399 368.467 860.466 360.867 860.466 350.2C860.466 339.667 859.399 332.133 857.266 327.6C855.266 323.067 852.066 320.8 847.666 320.8C843.266 320.8 839.999 323.067 837.866 327.6C835.866 332 834.866 339.467 834.866 350ZM981.197 308C976.797 308 972.997 306.667 969.797 304C966.73 301.2 965.197 297.6 965.197 293.2C965.197 288.533 966.73 284.8 969.797 282C972.997 279.067 976.797 277.6 981.197 277.6C985.864 277.6 989.73 279.067 992.797 282C995.864 284.8 997.397 288.533 997.397 293.2C997.397 297.6 995.864 301.2 992.797 304C989.73 306.667 985.864 308 981.197 308ZM953.797 319H998.197V403.6C998.197 405.733 998.797 407.333 999.997 408.4L1009.8 417.6V418H953.797V417.6L963.597 408.4C964.797 407.333 965.397 405.733 965.397 403.6V334.4C965.397 332.4 964.797 330.733 963.597 329.4L953.797 319.4V319ZM1120.73 272.2V403C1120.73 405.133 1121.33 406.733 1122.53 407.8L1132.53 417.6V418H1088.13V399.2C1082.27 412.8 1072.47 419.6 1058.73 419.6C1047 419.6 1037.47 415.133 1030.13 406.2C1022.93 397.267 1019.33 384.8 1019.33 368.8C1019.33 353.467 1023.33 341.067 1031.33 331.6C1039.47 322.133 1049.8 317.4 1062.33 317.4C1074.73 317.4 1083.33 322.733 1088.13 333.4V292C1088.13 289.867 1087.47 288.2 1086.13 287L1076.53 277.8V277.4L1120.73 272.2ZM1074.13 404.6C1079.6 404.6 1084.27 402.067 1088.13 397V335.2C1084.93 331.067 1080.6 329 1075.13 329C1069 329 1063.93 332.133 1059.93 338.4C1055.93 344.533 1053.93 354.333 1053.93 367.8C1053.93 380.6 1055.73 389.933 1059.33 395.8C1063.07 401.667 1068 404.6 1074.13 404.6ZM1234.51 364H1174.51V364.4C1174.51 376.667 1177.17 385.867 1182.51 392C1187.84 398 1194.71 401 1203.11 401C1217.24 401 1227.37 394.867 1233.51 382.6H1233.91C1228.84 407.267 1214.11 419.6 1189.71 419.6C1175.97 419.6 1164.37 415.333 1154.91 406.8C1145.44 398.267 1140.71 385.733 1140.71 369.2C1140.71 351.733 1145.44 338.733 1154.91 330.2C1164.37 321.667 1176.37 317.4 1190.91 317.4C1196.51 317.4 1201.77 318.133 1206.71 319.6C1211.64 321.067 1216.24 323.333 1220.51 326.4C1224.91 329.467 1228.37 333.867 1230.91 339.6C1233.44 345.2 1234.71 351.867 1234.71 359.6C1234.71 360.933 1234.64 362.4 1234.51 364ZM1190.51 321.2C1185.31 321.2 1181.37 324.267 1178.71 330.4C1176.04 336.4 1174.64 346.4 1174.51 360.4H1203.91C1204.04 358.667 1204.11 356.667 1204.11 354.4C1204.11 342 1202.91 333.4 1200.51 328.6C1198.24 323.667 1194.91 321.2 1190.51 321.2ZM1334.25 357.8C1334.25 358.6 1334.18 360 1334.05 362C1334.05 363.867 1334.05 364.867 1334.05 365L1332.85 393.4C1332.45 401.133 1334.25 405 1338.25 405C1340.78 405 1342.65 403.8 1343.85 401.4H1344.25C1344.25 404.067 1343.71 406.467 1342.65 408.6C1339.05 415.933 1332.51 419.6 1323.05 419.6C1317.05 419.6 1311.98 417.933 1307.85 414.6C1303.71 411.133 1301.51 406.333 1301.25 400.2C1299.25 406.067 1295.78 410.8 1290.85 414.4C1286.05 417.867 1280.45 419.6 1274.05 419.6C1266.31 419.6 1259.85 417.133 1254.65 412.2C1249.45 407.133 1246.85 400.2 1246.85 391.4C1246.85 382.067 1250.18 374.733 1256.85 369.4C1263.65 363.933 1271.51 361.2 1280.45 361.2C1289.51 361.2 1296.58 363 1301.65 366.6L1302.05 345.2V344.2C1302.05 328.867 1297.18 321.2 1287.45 321.2C1285.45 321.2 1284.18 321.333 1283.65 321.6C1283.25 321.867 1282.71 322.533 1282.05 323.6L1265.85 353.6H1265.45L1252.85 325C1266.98 319.933 1280.45 317.4 1293.25 317.4C1307.38 317.4 1317.71 320.467 1324.25 326.6C1330.91 332.867 1334.25 343.267 1334.25 357.8ZM1294.25 367.4C1289.18 367.4 1285.18 369.333 1282.25 373.2C1279.45 377.067 1278.05 382 1278.05 388C1278.05 393.333 1279.11 397.533 1281.25 400.6C1283.51 403.533 1286.38 405 1289.85 405C1294.38 405 1298.18 402.667 1301.25 398V397.8L1301.65 368.6C1299.25 367.8 1296.78 367.4 1294.25 367.4ZM1409.19 401.4C1409.19 397.533 1407.79 394.467 1404.99 392.2C1402.32 389.933 1397.32 387.133 1389.99 383.8L1376.39 377.4C1363.45 371.267 1356.99 361.8 1356.99 349C1356.99 339.4 1360.65 331.733 1367.99 326C1375.32 320.267 1385.32 317.4 1397.99 317.4C1409.72 317.4 1421.45 319.2 1433.19 322.8L1421.99 351.8H1421.59L1405.99 324C1404.79 322 1403.25 321 1401.39 321H1398.59C1393.92 321 1390.05 322.2 1386.99 324.6C1383.92 327 1382.39 330.467 1382.39 335C1382.39 339.133 1383.79 342.467 1386.59 345C1389.52 347.533 1394.25 350.267 1400.79 353.2L1413.59 358.8C1420.79 361.867 1426.25 365.467 1429.99 369.6C1433.85 373.733 1435.79 379.333 1435.79 386.4C1435.79 396.933 1431.72 405.133 1423.59 411C1415.45 416.733 1404.59 419.6 1390.99 419.6C1378.19 419.6 1365.92 417.533 1354.19 413.4L1365.19 382.4H1365.59L1381.59 413.4C1382.39 415.133 1383.79 416 1385.79 416H1390.39C1396.12 416 1400.65 414.667 1403.99 412C1407.45 409.333 1409.19 405.8 1409.19 401.4ZM218.803 625.4C218.803 621.533 217.403 618.467 214.603 616.2C211.936 613.933 206.936 611.133 199.603 607.8L186.003 601.4C173.07 595.267 166.603 585.8 166.603 573C166.603 563.4 170.27 555.733 177.603 550C184.936 544.267 194.936 541.4 207.603 541.4C219.336 541.4 231.07 543.2 242.803 546.8L231.603 575.8H231.203L215.603 548C214.403 546 212.87 545 211.003 545H208.203C203.536 545 199.67 546.2 196.603 548.6C193.536 551 192.003 554.467 192.003 559C192.003 563.133 193.403 566.467 196.203 569C199.136 571.533 203.87 574.267 210.403 577.2L223.203 582.8C230.403 585.867 235.87 589.467 239.603 593.6C243.47 597.733 245.403 603.333 245.403 610.4C245.403 620.933 241.336 629.133 233.203 635C225.07 640.733 214.203 643.6 200.603 643.6C187.803 643.6 175.536 641.533 163.803 637.4L174.803 606.4H175.203L191.203 637.4C192.003 639.133 193.403 640 195.403 640H200.003C205.736 640 210.27 638.667 213.603 636C217.07 633.333 218.803 629.8 218.803 625.4ZM362.242 583.6C362.242 588.4 362.109 596.4 361.842 607.6C361.709 618.667 361.642 625.333 361.642 627.6C361.642 629.6 362.309 631.2 363.642 632.4L373.442 641.6V642H317.442V641.6L326.842 632.4C328.176 631.2 328.842 629.667 328.842 627.8C328.842 627.4 328.909 621.667 329.042 610.6C329.309 599.4 329.442 591.933 329.442 588.2C329.442 578.2 328.309 570.667 326.042 565.6C323.909 560.533 319.976 558 314.242 558C308.376 558 303.376 561 299.242 567V627.6C299.242 629.6 299.909 631.2 301.242 632.4L311.042 641.6V642H255.042V641.6L264.842 632.4C266.042 631.2 266.642 629.6 266.642 627.6V516C266.642 513.867 266.042 512.2 264.842 511L255.042 501.8V501.4L299.242 496.2V564.8C304.709 549.2 315.309 541.4 331.042 541.4C341.176 541.4 348.909 545 354.242 552.2C359.576 559.4 362.242 569.867 362.242 583.6ZM468.95 581.8C468.95 582.6 468.883 584 468.75 586C468.75 587.867 468.75 588.867 468.75 589L467.55 617.4C467.15 625.133 468.95 629 472.95 629C475.483 629 477.35 627.8 478.55 625.4H478.95C478.95 628.067 478.417 630.467 477.35 632.6C473.75 639.933 467.217 643.6 457.75 643.6C451.75 643.6 446.683 641.933 442.55 638.6C438.417 635.133 436.217 630.333 435.95 624.2C433.95 630.067 430.483 634.8 425.55 638.4C420.75 641.867 415.15 643.6 408.75 643.6C401.017 643.6 394.55 641.133 389.35 636.2C384.15 631.133 381.55 624.2 381.55 615.4C381.55 606.067 384.883 598.733 391.55 593.4C398.35 587.933 406.217 585.2 415.15 585.2C424.217 585.2 431.283 587 436.35 590.6L436.75 569.2V568.2C436.75 552.867 431.883 545.2 422.15 545.2C420.15 545.2 418.883 545.333 418.35 545.6C417.95 545.867 417.417 546.533 416.75 547.6L400.55 577.6H400.15L387.55 549C401.683 543.933 415.15 541.4 427.95 541.4C442.083 541.4 452.417 544.467 458.95 550.6C465.617 556.867 468.95 567.267 468.95 581.8ZM428.95 591.4C423.883 591.4 419.883 593.333 416.95 597.2C414.15 601.067 412.75 606 412.75 612C412.75 617.333 413.817 621.533 415.95 624.6C418.217 627.533 421.083 629 424.55 629C429.083 629 432.883 626.667 435.95 622V621.8L436.35 592.6C433.95 591.8 431.483 591.4 428.95 591.4ZM495.927 673.2V558.4C495.927 556.4 495.327 554.733 494.127 553.4L484.327 543.4V543H528.527V564.2C535.06 549 545.393 541.4 559.527 541.4C570.727 541.4 579.793 545.867 586.727 554.8C593.793 563.6 597.327 575.467 597.327 590.4C597.327 606.267 593.327 619.133 585.327 629C577.327 638.733 567.193 643.6 554.927 643.6C541.193 643.6 532.393 638.533 528.527 628.4V672C528.527 673.333 528.66 674.267 528.927 674.8C529.327 675.333 530.193 676.067 531.527 677L546.327 687.2V687.6H484.327V687.2L494.127 678C495.327 676.8 495.927 675.2 495.927 673.2ZM543.527 557.4C537.66 557.4 532.66 560.533 528.527 566.8V627C531.593 630.333 535.927 632 541.527 632C547.26 632 552.193 628.733 556.327 622.2C560.593 615.533 562.727 605.467 562.727 592C562.727 568.933 556.327 557.4 543.527 557.4ZM635.705 532C631.305 532 627.505 530.667 624.305 528C621.238 525.2 619.705 521.6 619.705 517.2C619.705 512.533 621.238 508.8 624.305 506C627.505 503.067 631.305 501.6 635.705 501.6C640.371 501.6 644.238 503.067 647.305 506C650.371 508.8 651.905 512.533 651.905 517.2C651.905 521.6 650.371 525.2 647.305 528C644.238 530.667 640.371 532 635.705 532ZM608.305 543H652.705V627.6C652.705 629.733 653.305 631.333 654.505 632.4L664.305 641.6V642H608.305V641.6L618.105 632.4C619.305 631.333 619.905 629.733 619.905 627.6V558.4C619.905 556.4 619.305 554.733 618.105 553.4L608.305 543.4V543ZM781.619 583.6C781.619 588.4 781.485 596.4 781.219 607.6C781.085 618.667 781.019 625.333 781.019 627.6C781.019 629.6 781.619 631.2 782.819 632.4L792.819 641.6V642H736.619V641.6L746.219 632.4C747.419 631.2 748.019 629.667 748.019 627.8C748.019 627.4 748.085 621.667 748.219 610.6C748.485 599.4 748.619 591.933 748.619 588.2C748.619 578.2 747.552 570.667 745.419 565.6C743.285 560.533 739.285 558 733.419 558C727.552 558 722.619 560.933 718.619 566.8V627.6C718.619 629.733 719.219 631.333 720.419 632.4L730.219 641.6V642H674.219V641.6L684.019 632.4C685.219 631.333 685.819 629.733 685.819 627.6V558.4C685.819 556.4 685.219 554.733 684.019 553.4L674.219 543.4V543H718.619V564.2C724.085 549 734.685 541.4 750.419 541.4C760.419 541.4 768.085 545 773.419 552.2C778.885 559.4 781.619 569.867 781.619 583.6ZM804.066 574.6C804.066 563.667 807.999 555.4 815.866 549.8C823.732 544.2 834.132 541.4 847.066 541.4C858.399 541.4 867.532 543.267 874.466 547C875.932 547.8 877.332 547.467 878.666 546L899.466 524L899.866 524.2V554.2H881.066C887.866 559.667 891.266 566.867 891.266 575.8C891.266 586.333 887.266 594.2 879.266 599.4C871.399 604.467 860.866 607 847.666 607C841.266 607 835.866 606.467 831.466 605.4C827.332 607 825.266 609.467 825.266 612.8C825.266 618.667 832.066 621.6 845.666 621.6H864.266C888.132 621.6 900.066 630.467 900.066 648.2C900.066 660.333 894.732 670.2 884.066 677.8C873.399 685.4 859.932 689.2 843.666 689.2C832.732 689.2 823.132 687.4 814.866 683.8C806.732 680.333 802.666 675.4 802.666 669C802.666 664.733 804.532 660.933 808.266 657.6C812.132 654.4 817.999 652.2 825.866 651C818.932 649.533 813.532 646.867 809.666 643C805.932 639.133 804.066 634.533 804.066 629.2C804.066 623.333 806.332 618.267 810.866 614C815.399 609.733 821.532 606.667 829.266 604.8C812.466 600.533 804.066 590.467 804.066 574.6ZM834.666 652C831.599 651.733 829.266 651.467 827.666 651.2C822.332 654.4 819.666 658.667 819.666 664C819.666 670.4 822.732 675.467 828.866 679.2C834.999 683.067 842.199 685 850.466 685C858.466 685 865.332 683.333 871.066 680C876.932 676.667 879.866 671.933 879.866 665.8C879.866 661.667 878.399 658.533 875.466 656.4C872.666 654.267 867.732 653.067 860.666 652.8L834.666 652ZM834.866 574C834.866 584.667 835.932 592.267 838.066 596.8C840.199 601.333 843.399 603.6 847.666 603.6C851.932 603.6 855.132 601.4 857.266 597C859.399 592.467 860.466 584.867 860.466 574.2C860.466 563.667 859.399 556.133 857.266 551.6C855.266 547.067 852.066 544.8 847.666 544.8C843.266 544.8 839.999 547.067 837.866 551.6C835.866 556 834.866 563.467 834.866 574ZM981.197 532C976.797 532 972.997 530.667 969.797 528C966.73 525.2 965.197 521.6 965.197 517.2C965.197 512.533 966.73 508.8 969.797 506C972.997 503.067 976.797 501.6 981.197 501.6C985.864 501.6 989.73 503.067 992.797 506C995.864 508.8 997.397 512.533 997.397 517.2C997.397 521.6 995.864 525.2 992.797 528C989.73 530.667 985.864 532 981.197 532ZM953.797 543H998.197V627.6C998.197 629.733 998.797 631.333 999.997 632.4L1009.8 641.6V642H953.797V641.6L963.597 632.4C964.797 631.333 965.397 629.733 965.397 627.6V558.4C965.397 556.4 964.797 554.733 963.597 553.4L953.797 543.4V543ZM1120.73 496.2V627C1120.73 629.133 1121.33 630.733 1122.53 631.8L1132.53 641.6V642H1088.13V623.2C1082.27 636.8 1072.47 643.6 1058.73 643.6C1047 643.6 1037.47 639.133 1030.13 630.2C1022.93 621.267 1019.33 608.8 1019.33 592.8C1019.33 577.467 1023.33 565.067 1031.33 555.6C1039.47 546.133 1049.8 541.4 1062.33 541.4C1074.73 541.4 1083.33 546.733 1088.13 557.4V516C1088.13 513.867 1087.47 512.2 1086.13 511L1076.53 501.8V501.4L1120.73 496.2ZM1074.13 628.6C1079.6 628.6 1084.27 626.067 1088.13 621V559.2C1084.93 555.067 1080.6 553 1075.13 553C1069 553 1063.93 556.133 1059.93 562.4C1055.93 568.533 1053.93 578.333 1053.93 591.8C1053.93 604.6 1055.73 613.933 1059.33 619.8C1063.07 625.667 1068 628.6 1074.13 628.6ZM1234.51 588H1174.51V588.4C1174.51 600.667 1177.17 609.867 1182.51 616C1187.84 622 1194.71 625 1203.11 625C1217.24 625 1227.37 618.867 1233.51 606.6H1233.91C1228.84 631.267 1214.11 643.6 1189.71 643.6C1175.97 643.6 1164.37 639.333 1154.91 630.8C1145.44 622.267 1140.71 609.733 1140.71 593.2C1140.71 575.733 1145.44 562.733 1154.91 554.2C1164.37 545.667 1176.37 541.4 1190.91 541.4C1196.51 541.4 1201.77 542.133 1206.71 543.6C1211.64 545.067 1216.24 547.333 1220.51 550.4C1224.91 553.467 1228.37 557.867 1230.91 563.6C1233.44 569.2 1234.71 575.867 1234.71 583.6C1234.71 584.933 1234.64 586.4 1234.51 588ZM1190.51 545.2C1185.31 545.2 1181.37 548.267 1178.71 554.4C1176.04 560.4 1174.64 570.4 1174.51 584.4H1203.91C1204.04 582.667 1204.11 580.667 1204.11 578.4C1204.11 566 1202.91 557.4 1200.51 552.6C1198.24 547.667 1194.91 545.2 1190.51 545.2ZM1334.25 581.8C1334.25 582.6 1334.18 584 1334.05 586C1334.05 587.867 1334.05 588.867 1334.05 589L1332.85 617.4C1332.45 625.133 1334.25 629 1338.25 629C1340.78 629 1342.65 627.8 1343.85 625.4H1344.25C1344.25 628.067 1343.71 630.467 1342.65 632.6C1339.05 639.933 1332.51 643.6 1323.05 643.6C1317.05 643.6 1311.98 641.933 1307.85 638.6C1303.71 635.133 1301.51 630.333 1301.25 624.2C1299.25 630.067 1295.78 634.8 1290.85 638.4C1286.05 641.867 1280.45 643.6 1274.05 643.6C1266.31 643.6 1259.85 641.133 1254.65 636.2C1249.45 631.133 1246.85 624.2 1246.85 615.4C1246.85 606.067 1250.18 598.733 1256.85 593.4C1263.65 587.933 1271.51 585.2 1280.45 585.2C1289.51 585.2 1296.58 587 1301.65 590.6L1302.05 569.2V568.2C1302.05 552.867 1297.18 545.2 1287.45 545.2C1285.45 545.2 1284.18 545.333 1283.65 545.6C1283.25 545.867 1282.71 546.533 1282.05 547.6L1265.85 577.6H1265.45L1252.85 549C1266.98 543.933 1280.45 541.4 1293.25 541.4C1307.38 541.4 1317.71 544.467 1324.25 550.6C1330.91 556.867 1334.25 567.267 1334.25 581.8ZM1294.25 591.4C1289.18 591.4 1285.18 593.333 1282.25 597.2C1279.45 601.067 1278.05 606 1278.05 612C1278.05 617.333 1279.11 621.533 1281.25 624.6C1283.51 627.533 1286.38 629 1289.85 629C1294.38 629 1298.18 626.667 1301.25 622V621.8L1301.65 592.6C1299.25 591.8 1296.78 591.4 1294.25 591.4ZM1409.19 625.4C1409.19 621.533 1407.79 618.467 1404.99 616.2C1402.32 613.933 1397.32 611.133 1389.99 607.8L1376.39 601.4C1363.45 595.267 1356.99 585.8 1356.99 573C1356.99 563.4 1360.65 555.733 1367.99 550C1375.32 544.267 1385.32 541.4 1397.99 541.4C1409.72 541.4 1421.45 543.2 1433.19 546.8L1421.99 575.8H1421.59L1405.99 548C1404.79 546 1403.25 545 1401.39 545H1398.59C1393.92 545 1390.05 546.2 1386.99 548.6C1383.92 551 1382.39 554.467 1382.39 559C1382.39 563.133 1383.79 566.467 1386.59 569C1389.52 571.533 1394.25 574.267 1400.79 577.2L1413.59 582.8C1420.79 585.867 1426.25 589.467 1429.99 593.6C1433.85 597.733 1435.79 603.333 1435.79 610.4C1435.79 620.933 1431.72 629.133 1423.59 635C1415.45 640.733 1404.59 643.6 1390.99 643.6C1378.19 643.6 1365.92 641.533 1354.19 637.4L1365.19 606.4H1365.59L1381.59 637.4C1382.39 639.133 1383.79 640 1385.79 640H1390.39C1396.12 640 1400.65 638.667 1403.99 636C1407.45 633.333 1409.19 629.8 1409.19 625.4ZM218.803 849.4C218.803 845.533 217.403 842.467 214.603 840.2C211.936 837.933 206.936 835.133 199.603 831.8L186.003 825.4C173.07 819.267 166.603 809.8 166.603 797C166.603 787.4 170.27 779.733 177.603 774C184.936 768.267 194.936 765.4 207.603 765.4C219.336 765.4 231.07 767.2 242.803 770.8L231.603 799.8H231.203L215.603 772C214.403 770 212.87 769 211.003 769H208.203C203.536 769 199.67 770.2 196.603 772.6C193.536 775 192.003 778.467 192.003 783C192.003 787.133 193.403 790.467 196.203 793C199.136 795.533 203.87 798.267 210.403 801.2L223.203 806.8C230.403 809.867 235.87 813.467 239.603 817.6C243.47 821.733 245.403 827.333 245.403 834.4C245.403 844.933 241.336 853.133 233.203 859C225.07 864.733 214.203 867.6 200.603 867.6C187.803 867.6 175.536 865.533 163.803 861.4L174.803 830.4H175.203L191.203 861.4C192.003 863.133 193.403 864 195.403 864H200.003C205.736 864 210.27 862.667 213.603 860C217.07 857.333 218.803 853.8 218.803 849.4ZM362.242 807.6C362.242 812.4 362.109 820.4 361.842 831.6C361.709 842.667 361.642 849.333 361.642 851.6C361.642 853.6 362.309 855.2 363.642 856.4L373.442 865.6V866H317.442V865.6L326.842 856.4C328.176 855.2 328.842 853.667 328.842 851.8C328.842 851.4 328.909 845.667 329.042 834.6C329.309 823.4 329.442 815.933 329.442 812.2C329.442 802.2 328.309 794.667 326.042 789.6C323.909 784.533 319.976 782 314.242 782C308.376 782 303.376 785 299.242 791V851.6C299.242 853.6 299.909 855.2 301.242 856.4L311.042 865.6V866H255.042V865.6L264.842 856.4C266.042 855.2 266.642 853.6 266.642 851.6V740C266.642 737.867 266.042 736.2 264.842 735L255.042 725.8V725.4L299.242 720.2V788.8C304.709 773.2 315.309 765.4 331.042 765.4C341.176 765.4 348.909 769 354.242 776.2C359.576 783.4 362.242 793.867 362.242 807.6ZM468.95 805.8C468.95 806.6 468.883 808 468.75 810C468.75 811.867 468.75 812.867 468.75 813L467.55 841.4C467.15 849.133 468.95 853 472.95 853C475.483 853 477.35 851.8 478.55 849.4H478.95C478.95 852.067 478.417 854.467 477.35 856.6C473.75 863.933 467.217 867.6 457.75 867.6C451.75 867.6 446.683 865.933 442.55 862.6C438.417 859.133 436.217 854.333 435.95 848.2C433.95 854.067 430.483 858.8 425.55 862.4C420.75 865.867 415.15 867.6 408.75 867.6C401.017 867.6 394.55 865.133 389.35 860.2C384.15 855.133 381.55 848.2 381.55 839.4C381.55 830.067 384.883 822.733 391.55 817.4C398.35 811.933 406.217 809.2 415.15 809.2C424.217 809.2 431.283 811 436.35 814.6L436.75 793.2V792.2C436.75 776.867 431.883 769.2 422.15 769.2C420.15 769.2 418.883 769.333 418.35 769.6C417.95 769.867 417.417 770.533 416.75 771.6L400.55 801.6H400.15L387.55 773C401.683 767.933 415.15 765.4 427.95 765.4C442.083 765.4 452.417 768.467 458.95 774.6C465.617 780.867 468.95 791.267 468.95 805.8ZM428.95 815.4C423.883 815.4 419.883 817.333 416.95 821.2C414.15 825.067 412.75 830 412.75 836C412.75 841.333 413.817 845.533 415.95 848.6C418.217 851.533 421.083 853 424.55 853C429.083 853 432.883 850.667 435.95 846V845.8L436.35 816.6C433.95 815.8 431.483 815.4 428.95 815.4ZM495.927 897.2V782.4C495.927 780.4 495.327 778.733 494.127 777.4L484.327 767.4V767H528.527V788.2C535.06 773 545.393 765.4 559.527 765.4C570.727 765.4 579.793 769.867 586.727 778.8C593.793 787.6 597.327 799.467 597.327 814.4C597.327 830.267 593.327 843.133 585.327 853C577.327 862.733 567.193 867.6 554.927 867.6C541.193 867.6 532.393 862.533 528.527 852.4V896C528.527 897.333 528.66 898.267 528.927 898.8C529.327 899.333 530.193 900.067 531.527 901L546.327 911.2V911.6H484.327V911.2L494.127 902C495.327 900.8 495.927 899.2 495.927 897.2ZM543.527 781.4C537.66 781.4 532.66 784.533 528.527 790.8V851C531.593 854.333 535.927 856 541.527 856C547.26 856 552.193 852.733 556.327 846.2C560.593 839.533 562.727 829.467 562.727 816C562.727 792.933 556.327 781.4 543.527 781.4ZM635.705 756C631.305 756 627.505 754.667 624.305 752C621.238 749.2 619.705 745.6 619.705 741.2C619.705 736.533 621.238 732.8 624.305 730C627.505 727.067 631.305 725.6 635.705 725.6C640.371 725.6 644.238 727.067 647.305 730C650.371 732.8 651.905 736.533 651.905 741.2C651.905 745.6 650.371 749.2 647.305 752C644.238 754.667 640.371 756 635.705 756ZM608.305 767H652.705V851.6C652.705 853.733 653.305 855.333 654.505 856.4L664.305 865.6V866H608.305V865.6L618.105 856.4C619.305 855.333 619.905 853.733 619.905 851.6V782.4C619.905 780.4 619.305 778.733 618.105 777.4L608.305 767.4V767ZM781.619 807.6C781.619 812.4 781.485 820.4 781.219 831.6C781.085 842.667 781.019 849.333 781.019 851.6C781.019 853.6 781.619 855.2 782.819 856.4L792.819 865.6V866H736.619V865.6L746.219 856.4C747.419 855.2 748.019 853.667 748.019 851.8C748.019 851.4 748.085 845.667 748.219 834.6C748.485 823.4 748.619 815.933 748.619 812.2C748.619 802.2 747.552 794.667 745.419 789.6C743.285 784.533 739.285 782 733.419 782C727.552 782 722.619 784.933 718.619 790.8V851.6C718.619 853.733 719.219 855.333 720.419 856.4L730.219 865.6V866H674.219V865.6L684.019 856.4C685.219 855.333 685.819 853.733 685.819 851.6V782.4C685.819 780.4 685.219 778.733 684.019 777.4L674.219 767.4V767H718.619V788.2C724.085 773 734.685 765.4 750.419 765.4C760.419 765.4 768.085 769 773.419 776.2C778.885 783.4 781.619 793.867 781.619 807.6ZM804.066 798.6C804.066 787.667 807.999 779.4 815.866 773.8C823.732 768.2 834.132 765.4 847.066 765.4C858.399 765.4 867.532 767.267 874.466 771C875.932 771.8 877.332 771.467 878.666 770L899.466 748L899.866 748.2V778.2H881.066C887.866 783.667 891.266 790.867 891.266 799.8C891.266 810.333 887.266 818.2 879.266 823.4C871.399 828.467 860.866 831 847.666 831C841.266 831 835.866 830.467 831.466 829.4C827.332 831 825.266 833.467 825.266 836.8C825.266 842.667 832.066 845.6 845.666 845.6H864.266C888.132 845.6 900.066 854.467 900.066 872.2C900.066 884.333 894.732 894.2 884.066 901.8C873.399 909.4 859.932 913.2 843.666 913.2C832.732 913.2 823.132 911.4 814.866 907.8C806.732 904.333 802.666 899.4 802.666 893C802.666 888.733 804.532 884.933 808.266 881.6C812.132 878.4 817.999 876.2 825.866 875C818.932 873.533 813.532 870.867 809.666 867C805.932 863.133 804.066 858.533 804.066 853.2C804.066 847.333 806.332 842.267 810.866 838C815.399 833.733 821.532 830.667 829.266 828.8C812.466 824.533 804.066 814.467 804.066 798.6ZM834.666 876C831.599 875.733 829.266 875.467 827.666 875.2C822.332 878.4 819.666 882.667 819.666 888C819.666 894.4 822.732 899.467 828.866 903.2C834.999 907.067 842.199 909 850.466 909C858.466 909 865.332 907.333 871.066 904C876.932 900.667 879.866 895.933 879.866 889.8C879.866 885.667 878.399 882.533 875.466 880.4C872.666 878.267 867.732 877.067 860.666 876.8L834.666 876ZM834.866 798C834.866 808.667 835.932 816.267 838.066 820.8C840.199 825.333 843.399 827.6 847.666 827.6C851.932 827.6 855.132 825.4 857.266 821C859.399 816.467 860.466 808.867 860.466 798.2C860.466 787.667 859.399 780.133 857.266 775.6C855.266 771.067 852.066 768.8 847.666 768.8C843.266 768.8 839.999 771.067 837.866 775.6C835.866 780 834.866 787.467 834.866 798ZM981.197 756C976.797 756 972.997 754.667 969.797 752C966.73 749.2 965.197 745.6 965.197 741.2C965.197 736.533 966.73 732.8 969.797 730C972.997 727.067 976.797 725.6 981.197 725.6C985.864 725.6 989.73 727.067 992.797 730C995.864 732.8 997.397 736.533 997.397 741.2C997.397 745.6 995.864 749.2 992.797 752C989.73 754.667 985.864 756 981.197 756ZM953.797 767H998.197V851.6C998.197 853.733 998.797 855.333 999.997 856.4L1009.8 865.6V866H953.797V865.6L963.597 856.4C964.797 855.333 965.397 853.733 965.397 851.6V782.4C965.397 780.4 964.797 778.733 963.597 777.4L953.797 767.4V767ZM1120.73 720.2V851C1120.73 853.133 1121.33 854.733 1122.53 855.8L1132.53 865.6V866H1088.13V847.2C1082.27 860.8 1072.47 867.6 1058.73 867.6C1047 867.6 1037.47 863.133 1030.13 854.2C1022.93 845.267 1019.33 832.8 1019.33 816.8C1019.33 801.467 1023.33 789.067 1031.33 779.6C1039.47 770.133 1049.8 765.4 1062.33 765.4C1074.73 765.4 1083.33 770.733 1088.13 781.4V740C1088.13 737.867 1087.47 736.2 1086.13 735L1076.53 725.8V725.4L1120.73 720.2ZM1074.13 852.6C1079.6 852.6 1084.27 850.067 1088.13 845V783.2C1084.93 779.067 1080.6 777 1075.13 777C1069 777 1063.93 780.133 1059.93 786.4C1055.93 792.533 1053.93 802.333 1053.93 815.8C1053.93 828.6 1055.73 837.933 1059.33 843.8C1063.07 849.667 1068 852.6 1074.13 852.6ZM1234.51 812H1174.51V812.4C1174.51 824.667 1177.17 833.867 1182.51 840C1187.84 846 1194.71 849 1203.11 849C1217.24 849 1227.37 842.867 1233.51 830.6H1233.91C1228.84 855.267 1214.11 867.6 1189.71 867.6C1175.97 867.6 1164.37 863.333 1154.91 854.8C1145.44 846.267 1140.71 833.733 1140.71 817.2C1140.71 799.733 1145.44 786.733 1154.91 778.2C1164.37 769.667 1176.37 765.4 1190.91 765.4C1196.51 765.4 1201.77 766.133 1206.71 767.6C1211.64 769.067 1216.24 771.333 1220.51 774.4C1224.91 777.467 1228.37 781.867 1230.91 787.6C1233.44 793.2 1234.71 799.867 1234.71 807.6C1234.71 808.933 1234.64 810.4 1234.51 812ZM1190.51 769.2C1185.31 769.2 1181.37 772.267 1178.71 778.4C1176.04 784.4 1174.64 794.4 1174.51 808.4H1203.91C1204.04 806.667 1204.11 804.667 1204.11 802.4C1204.11 790 1202.91 781.4 1200.51 776.6C1198.24 771.667 1194.91 769.2 1190.51 769.2ZM1334.25 805.8C1334.25 806.6 1334.18 808 1334.05 810C1334.05 811.867 1334.05 812.867 1334.05 813L1332.85 841.4C1332.45 849.133 1334.25 853 1338.25 853C1340.78 853 1342.65 851.8 1343.85 849.4H1344.25C1344.25 852.067 1343.71 854.467 1342.65 856.6C1339.05 863.933 1332.51 867.6 1323.05 867.6C1317.05 867.6 1311.98 865.933 1307.85 862.6C1303.71 859.133 1301.51 854.333 1301.25 848.2C1299.25 854.067 1295.78 858.8 1290.85 862.4C1286.05 865.867 1280.45 867.6 1274.05 867.6C1266.31 867.6 1259.85 865.133 1254.65 860.2C1249.45 855.133 1246.85 848.2 1246.85 839.4C1246.85 830.067 1250.18 822.733 1256.85 817.4C1263.65 811.933 1271.51 809.2 1280.45 809.2C1289.51 809.2 1296.58 811 1301.65 814.6L1302.05 793.2V792.2C1302.05 776.867 1297.18 769.2 1287.45 769.2C1285.45 769.2 1284.18 769.333 1283.65 769.6C1283.25 769.867 1282.71 770.533 1282.05 771.6L1265.85 801.6H1265.45L1252.85 773C1266.98 767.933 1280.45 765.4 1293.25 765.4C1307.38 765.4 1317.71 768.467 1324.25 774.6C1330.91 780.867 1334.25 791.267 1334.25 805.8ZM1294.25 815.4C1289.18 815.4 1285.18 817.333 1282.25 821.2C1279.45 825.067 1278.05 830 1278.05 836C1278.05 841.333 1279.11 845.533 1281.25 848.6C1283.51 851.533 1286.38 853 1289.85 853C1294.38 853 1298.18 850.667 1301.25 846V845.8L1301.65 816.6C1299.25 815.8 1296.78 815.4 1294.25 815.4ZM1409.19 849.4C1409.19 845.533 1407.79 842.467 1404.99 840.2C1402.32 837.933 1397.32 835.133 1389.99 831.8L1376.39 825.4C1363.45 819.267 1356.99 809.8 1356.99 797C1356.99 787.4 1360.65 779.733 1367.99 774C1375.32 768.267 1385.32 765.4 1397.99 765.4C1409.72 765.4 1421.45 767.2 1433.19 770.8L1421.99 799.8H1421.59L1405.99 772C1404.79 770 1403.25 769 1401.39 769H1398.59C1393.92 769 1390.05 770.2 1386.99 772.6C1383.92 775 1382.39 778.467 1382.39 783C1382.39 787.133 1383.79 790.467 1386.59 793C1389.52 795.533 1394.25 798.267 1400.79 801.2L1413.59 806.8C1420.79 809.867 1426.25 813.467 1429.99 817.6C1433.85 821.733 1435.79 827.333 1435.79 834.4C1435.79 844.933 1431.72 853.133 1423.59 859C1415.45 864.733 1404.59 867.6 1390.99 867.6C1378.19 867.6 1365.92 865.533 1354.19 861.4L1365.19 830.4H1365.59L1381.59 861.4C1382.39 863.133 1383.79 864 1385.79 864H1390.39C1396.12 864 1400.65 862.667 1403.99 860C1407.45 857.333 1409.19 853.8 1409.19 849.4ZM218.803 1073.4C218.803 1069.53 217.403 1066.47 214.603 1064.2C211.936 1061.93 206.936 1059.13 199.603 1055.8L186.003 1049.4C173.07 1043.27 166.603 1033.8 166.603 1021C166.603 1011.4 170.27 1003.73 177.603 998C184.936 992.267 194.936 989.4 207.603 989.4C219.336 989.4 231.07 991.2 242.803 994.8L231.603 1023.8H231.203L215.603 996C214.403 994 212.87 993 211.003 993H208.203C203.536 993 199.67 994.2 196.603 996.6C193.536 999 192.003 1002.47 192.003 1007C192.003 1011.13 193.403 1014.47 196.203 1017C199.136 1019.53 203.87 1022.27 210.403 1025.2L223.203 1030.8C230.403 1033.87 235.87 1037.47 239.603 1041.6C243.47 1045.73 245.403 1051.33 245.403 1058.4C245.403 1068.93 241.336 1077.13 233.203 1083C225.07 1088.73 214.203 1091.6 200.603 1091.6C187.803 1091.6 175.536 1089.53 163.803 1085.4L174.803 1054.4H175.203L191.203 1085.4C192.003 1087.13 193.403 1088 195.403 1088H200.003C205.736 1088 210.27 1086.67 213.603 1084C217.07 1081.33 218.803 1077.8 218.803 1073.4ZM362.242 1031.6C362.242 1036.4 362.109 1044.4 361.842 1055.6C361.709 1066.67 361.642 1073.33 361.642 1075.6C361.642 1077.6 362.309 1079.2 363.642 1080.4L373.442 1089.6V1090H317.442V1089.6L326.842 1080.4C328.176 1079.2 328.842 1077.67 328.842 1075.8C328.842 1075.4 328.909 1069.67 329.042 1058.6C329.309 1047.4 329.442 1039.93 329.442 1036.2C329.442 1026.2 328.309 1018.67 326.042 1013.6C323.909 1008.53 319.976 1006 314.242 1006C308.376 1006 303.376 1009 299.242 1015V1075.6C299.242 1077.6 299.909 1079.2 301.242 1080.4L311.042 1089.6V1090H255.042V1089.6L264.842 1080.4C266.042 1079.2 266.642 1077.6 266.642 1075.6V964C266.642 961.867 266.042 960.2 264.842 959L255.042 949.8V949.4L299.242 944.2V1012.8C304.709 997.2 315.309 989.4 331.042 989.4C341.176 989.4 348.909 993 354.242 1000.2C359.576 1007.4 362.242 1017.87 362.242 1031.6ZM468.95 1029.8C468.95 1030.6 468.883 1032 468.75 1034C468.75 1035.87 468.75 1036.87 468.75 1037L467.55 1065.4C467.15 1073.13 468.95 1077 472.95 1077C475.483 1077 477.35 1075.8 478.55 1073.4H478.95C478.95 1076.07 478.417 1078.47 477.35 1080.6C473.75 1087.93 467.217 1091.6 457.75 1091.6C451.75 1091.6 446.683 1089.93 442.55 1086.6C438.417 1083.13 436.217 1078.33 435.95 1072.2C433.95 1078.07 430.483 1082.8 425.55 1086.4C420.75 1089.87 415.15 1091.6 408.75 1091.6C401.017 1091.6 394.55 1089.13 389.35 1084.2C384.15 1079.13 381.55 1072.2 381.55 1063.4C381.55 1054.07 384.883 1046.73 391.55 1041.4C398.35 1035.93 406.217 1033.2 415.15 1033.2C424.217 1033.2 431.283 1035 436.35 1038.6L436.75 1017.2V1016.2C436.75 1000.87 431.883 993.2 422.15 993.2C420.15 993.2 418.883 993.333 418.35 993.6C417.95 993.867 417.417 994.533 416.75 995.6L400.55 1025.6H400.15L387.55 997C401.683 991.933 415.15 989.4 427.95 989.4C442.083 989.4 452.417 992.467 458.95 998.6C465.617 1004.87 468.95 1015.27 468.95 1029.8ZM428.95 1039.4C423.883 1039.4 419.883 1041.33 416.95 1045.2C414.15 1049.07 412.75 1054 412.75 1060C412.75 1065.33 413.817 1069.53 415.95 1072.6C418.217 1075.53 421.083 1077 424.55 1077C429.083 1077 432.883 1074.67 435.95 1070V1069.8L436.35 1040.6C433.95 1039.8 431.483 1039.4 428.95 1039.4ZM495.927 1121.2V1006.4C495.927 1004.4 495.327 1002.73 494.127 1001.4L484.327 991.4V991H528.527V1012.2C535.06 997 545.393 989.4 559.527 989.4C570.727 989.4 579.793 993.867 586.727 1002.8C593.793 1011.6 597.327 1023.47 597.327 1038.4C597.327 1054.27 593.327 1067.13 585.327 1077C577.327 1086.73 567.193 1091.6 554.927 1091.6C541.193 1091.6 532.393 1086.53 528.527 1076.4V1120C528.527 1121.33 528.66 1122.27 528.927 1122.8C529.327 1123.33 530.193 1124.07 531.527 1125L546.327 1135.2V1135.6H484.327V1135.2L494.127 1126C495.327 1124.8 495.927 1123.2 495.927 1121.2ZM543.527 1005.4C537.66 1005.4 532.66 1008.53 528.527 1014.8V1075C531.593 1078.33 535.927 1080 541.527 1080C547.26 1080 552.193 1076.73 556.327 1070.2C560.593 1063.53 562.727 1053.47 562.727 1040C562.727 1016.93 556.327 1005.4 543.527 1005.4ZM635.705 980C631.305 980 627.505 978.667 624.305 976C621.238 973.2 619.705 969.6 619.705 965.2C619.705 960.533 621.238 956.8 624.305 954C627.505 951.067 631.305 949.6 635.705 949.6C640.371 949.6 644.238 951.067 647.305 954C650.371 956.8 651.905 960.533 651.905 965.2C651.905 969.6 650.371 973.2 647.305 976C644.238 978.667 640.371 980 635.705 980ZM608.305 991H652.705V1075.6C652.705 1077.73 653.305 1079.33 654.505 1080.4L664.305 1089.6V1090H608.305V1089.6L618.105 1080.4C619.305 1079.33 619.905 1077.73 619.905 1075.6V1006.4C619.905 1004.4 619.305 1002.73 618.105 1001.4L608.305 991.4V991ZM781.619 1031.6C781.619 1036.4 781.485 1044.4 781.219 1055.6C781.085 1066.67 781.019 1073.33 781.019 1075.6C781.019 1077.6 781.619 1079.2 782.819 1080.4L792.819 1089.6V1090H736.619V1089.6L746.219 1080.4C747.419 1079.2 748.019 1077.67 748.019 1075.8C748.019 1075.4 748.085 1069.67 748.219 1058.6C748.485 1047.4 748.619 1039.93 748.619 1036.2C748.619 1026.2 747.552 1018.67 745.419 1013.6C743.285 1008.53 739.285 1006 733.419 1006C727.552 1006 722.619 1008.93 718.619 1014.8V1075.6C718.619 1077.73 719.219 1079.33 720.419 1080.4L730.219 1089.6V1090H674.219V1089.6L684.019 1080.4C685.219 1079.33 685.819 1077.73 685.819 1075.6V1006.4C685.819 1004.4 685.219 1002.73 684.019 1001.4L674.219 991.4V991H718.619V1012.2C724.085 997 734.685 989.4 750.419 989.4C760.419 989.4 768.085 993 773.419 1000.2C778.885 1007.4 781.619 1017.87 781.619 1031.6ZM804.066 1022.6C804.066 1011.67 807.999 1003.4 815.866 997.8C823.732 992.2 834.132 989.4 847.066 989.4C858.399 989.4 867.532 991.267 874.466 995C875.932 995.8 877.332 995.467 878.666 994L899.466 972L899.866 972.2V1002.2H881.066C887.866 1007.67 891.266 1014.87 891.266 1023.8C891.266 1034.33 887.266 1042.2 879.266 1047.4C871.399 1052.47 860.866 1055 847.666 1055C841.266 1055 835.866 1054.47 831.466 1053.4C827.332 1055 825.266 1057.47 825.266 1060.8C825.266 1066.67 832.066 1069.6 845.666 1069.6H864.266C888.132 1069.6 900.066 1078.47 900.066 1096.2C900.066 1108.33 894.732 1118.2 884.066 1125.8C873.399 1133.4 859.932 1137.2 843.666 1137.2C832.732 1137.2 823.132 1135.4 814.866 1131.8C806.732 1128.33 802.666 1123.4 802.666 1117C802.666 1112.73 804.532 1108.93 808.266 1105.6C812.132 1102.4 817.999 1100.2 825.866 1099C818.932 1097.53 813.532 1094.87 809.666 1091C805.932 1087.13 804.066 1082.53 804.066 1077.2C804.066 1071.33 806.332 1066.27 810.866 1062C815.399 1057.73 821.532 1054.67 829.266 1052.8C812.466 1048.53 804.066 1038.47 804.066 1022.6ZM834.666 1100C831.599 1099.73 829.266 1099.47 827.666 1099.2C822.332 1102.4 819.666 1106.67 819.666 1112C819.666 1118.4 822.732 1123.47 828.866 1127.2C834.999 1131.07 842.199 1133 850.466 1133C858.466 1133 865.332 1131.33 871.066 1128C876.932 1124.67 879.866 1119.93 879.866 1113.8C879.866 1109.67 878.399 1106.53 875.466 1104.4C872.666 1102.27 867.732 1101.07 860.666 1100.8L834.666 1100ZM834.866 1022C834.866 1032.67 835.932 1040.27 838.066 1044.8C840.199 1049.33 843.399 1051.6 847.666 1051.6C851.932 1051.6 855.132 1049.4 857.266 1045C859.399 1040.47 860.466 1032.87 860.466 1022.2C860.466 1011.67 859.399 1004.13 857.266 999.6C855.266 995.067 852.066 992.8 847.666 992.8C843.266 992.8 839.999 995.067 837.866 999.6C835.866 1004 834.866 1011.47 834.866 1022ZM981.197 980C976.797 980 972.997 978.667 969.797 976C966.73 973.2 965.197 969.6 965.197 965.2C965.197 960.533 966.73 956.8 969.797 954C972.997 951.067 976.797 949.6 981.197 949.6C985.864 949.6 989.73 951.067 992.797 954C995.864 956.8 997.397 960.533 997.397 965.2C997.397 969.6 995.864 973.2 992.797 976C989.73 978.667 985.864 980 981.197 980ZM953.797 991H998.197V1075.6C998.197 1077.73 998.797 1079.33 999.997 1080.4L1009.8 1089.6V1090H953.797V1089.6L963.597 1080.4C964.797 1079.33 965.397 1077.73 965.397 1075.6V1006.4C965.397 1004.4 964.797 1002.73 963.597 1001.4L953.797 991.4V991ZM1120.73 944.2V1075C1120.73 1077.13 1121.33 1078.73 1122.53 1079.8L1132.53 1089.6V1090H1088.13V1071.2C1082.27 1084.8 1072.47 1091.6 1058.73 1091.6C1047 1091.6 1037.47 1087.13 1030.13 1078.2C1022.93 1069.27 1019.33 1056.8 1019.33 1040.8C1019.33 1025.47 1023.33 1013.07 1031.33 1003.6C1039.47 994.133 1049.8 989.4 1062.33 989.4C1074.73 989.4 1083.33 994.733 1088.13 1005.4V964C1088.13 961.867 1087.47 960.2 1086.13 959L1076.53 949.8V949.4L1120.73 944.2ZM1074.13 1076.6C1079.6 1076.6 1084.27 1074.07 1088.13 1069V1007.2C1084.93 1003.07 1080.6 1001 1075.13 1001C1069 1001 1063.93 1004.13 1059.93 1010.4C1055.93 1016.53 1053.93 1026.33 1053.93 1039.8C1053.93 1052.6 1055.73 1061.93 1059.33 1067.8C1063.07 1073.67 1068 1076.6 1074.13 1076.6ZM1234.51 1036H1174.51V1036.4C1174.51 1048.67 1177.17 1057.87 1182.51 1064C1187.84 1070 1194.71 1073 1203.11 1073C1217.24 1073 1227.37 1066.87 1233.51 1054.6H1233.91C1228.84 1079.27 1214.11 1091.6 1189.71 1091.6C1175.97 1091.6 1164.37 1087.33 1154.91 1078.8C1145.44 1070.27 1140.71 1057.73 1140.71 1041.2C1140.71 1023.73 1145.44 1010.73 1154.91 1002.2C1164.37 993.667 1176.37 989.4 1190.91 989.4C1196.51 989.4 1201.77 990.133 1206.71 991.6C1211.64 993.067 1216.24 995.333 1220.51 998.4C1224.91 1001.47 1228.37 1005.87 1230.91 1011.6C1233.44 1017.2 1234.71 1023.87 1234.71 1031.6C1234.71 1032.93 1234.64 1034.4 1234.51 1036ZM1190.51 993.2C1185.31 993.2 1181.37 996.267 1178.71 1002.4C1176.04 1008.4 1174.64 1018.4 1174.51 1032.4H1203.91C1204.04 1030.67 1204.11 1028.67 1204.11 1026.4C1204.11 1014 1202.91 1005.4 1200.51 1000.6C1198.24 995.667 1194.91 993.2 1190.51 993.2ZM1334.25 1029.8C1334.25 1030.6 1334.18 1032 1334.05 1034C1334.05 1035.87 1334.05 1036.87 1334.05 1037L1332.85 1065.4C1332.45 1073.13 1334.25 1077 1338.25 1077C1340.78 1077 1342.65 1075.8 1343.85 1073.4H1344.25C1344.25 1076.07 1343.71 1078.47 1342.65 1080.6C1339.05 1087.93 1332.51 1091.6 1323.05 1091.6C1317.05 1091.6 1311.98 1089.93 1307.85 1086.6C1303.71 1083.13 1301.51 1078.33 1301.25 1072.2C1299.25 1078.07 1295.78 1082.8 1290.85 1086.4C1286.05 1089.87 1280.45 1091.6 1274.05 1091.6C1266.31 1091.6 1259.85 1089.13 1254.65 1084.2C1249.45 1079.13 1246.85 1072.2 1246.85 1063.4C1246.85 1054.07 1250.18 1046.73 1256.85 1041.4C1263.65 1035.93 1271.51 1033.2 1280.45 1033.2C1289.51 1033.2 1296.58 1035 1301.65 1038.6L1302.05 1017.2V1016.2C1302.05 1000.87 1297.18 993.2 1287.45 993.2C1285.45 993.2 1284.18 993.333 1283.65 993.6C1283.25 993.867 1282.71 994.533 1282.05 995.6L1265.85 1025.6H1265.45L1252.85 997C1266.98 991.933 1280.45 989.4 1293.25 989.4C1307.38 989.4 1317.71 992.467 1324.25 998.6C1330.91 1004.87 1334.25 1015.27 1334.25 1029.8ZM1294.25 1039.4C1289.18 1039.4 1285.18 1041.33 1282.25 1045.2C1279.45 1049.07 1278.05 1054 1278.05 1060C1278.05 1065.33 1279.11 1069.53 1281.25 1072.6C1283.51 1075.53 1286.38 1077 1289.85 1077C1294.38 1077 1298.18 1074.67 1301.25 1070V1069.8L1301.65 1040.6C1299.25 1039.8 1296.78 1039.4 1294.25 1039.4ZM1409.19 1073.4C1409.19 1069.53 1407.79 1066.47 1404.99 1064.2C1402.32 1061.93 1397.32 1059.13 1389.99 1055.8L1376.39 1049.4C1363.45 1043.27 1356.99 1033.8 1356.99 1021C1356.99 1011.4 1360.65 1003.73 1367.99 998C1375.32 992.267 1385.32 989.4 1397.99 989.4C1409.72 989.4 1421.45 991.2 1433.19 994.8L1421.99 1023.8H1421.59L1405.99 996C1404.79 994 1403.25 993 1401.39 993H1398.59C1393.92 993 1390.05 994.2 1386.99 996.6C1383.92 999 1382.39 1002.47 1382.39 1007C1382.39 1011.13 1383.79 1014.47 1386.59 1017C1389.52 1019.53 1394.25 1022.27 1400.79 1025.2L1413.59 1030.8C1420.79 1033.87 1426.25 1037.47 1429.99 1041.6C1433.85 1045.73 1435.79 1051.33 1435.79 1058.4C1435.79 1068.93 1431.72 1077.13 1423.59 1083C1415.45 1088.73 1404.59 1091.6 1390.99 1091.6C1378.19 1091.6 1365.92 1089.53 1354.19 1085.4L1365.19 1054.4H1365.59L1381.59 1085.4C1382.39 1087.13 1383.79 1088 1385.79 1088H1390.39C1396.12 1088 1400.65 1086.67 1403.99 1084C1407.45 1081.33 1409.19 1077.8 1409.19 1073.4Z" fill="#F8F8F8"/>
</svg>
