<svg width="1600" height="1200" viewBox="0 0 1600 1200" fill="none" xmlns="http://www.w3.org/2000/svg">
<path d="M328.011 494.4C328.011 508 322.878 519 312.611 527.4C302.344 535.8 288.811 540 272.011 540C257.478 540 243.811 538.133 231.011 534.4V486.6H231.411L257.811 532.2C259.011 534.333 260.478 535.533 262.211 535.8C264.211 536.067 267.011 536.2 270.611 536.2C278.878 536.2 285.478 534.2 290.411 530.2C295.344 526.2 297.811 520.533 297.811 513.2C297.811 506.933 295.744 501.933 291.611 498.2C287.478 494.333 280.344 490 270.211 485.2L264.011 482.2C258.678 479.667 254.144 477.267 250.411 475C246.678 472.6 242.811 469.667 238.811 466.2C234.944 462.6 231.944 458.4 229.811 453.6C227.811 448.667 226.811 443.2 226.811 437.2C226.811 424.533 231.544 414.4 241.011 406.8C250.478 399.2 263.078 395.4 278.811 395.4C291.744 395.4 304.544 396.933 317.211 400V445.6H316.811L289.811 402.4C288.744 400.8 287.411 399.867 285.811 399.6C284.344 399.333 282.411 399.2 280.011 399.2C272.811 399.2 267.011 401.133 262.611 405C258.344 408.867 256.211 414.267 256.211 421.2C256.211 427.067 258.144 431.8 262.011 435.4C266.011 439 272.544 443 281.611 447.4L289.011 451C294.211 453.533 298.344 455.667 301.411 457.4C304.478 459 307.878 461.2 311.611 464C315.478 466.667 318.411 469.333 320.411 472C322.544 474.667 324.344 477.933 325.811 481.8C327.278 485.667 328.011 489.867 328.011 494.4ZM443.539 479.6C443.539 484.4 443.406 492.4 443.139 503.6C443.006 514.667 442.939 521.333 442.939 523.6C442.939 525.6 443.606 527.2 444.939 528.4L454.739 537.6V538H398.739V537.6L408.139 528.4C409.472 527.2 410.139 525.667 410.139 523.8C410.139 523.4 410.206 517.667 410.339 506.6C410.606 495.4 410.739 487.933 410.739 484.2C410.739 474.2 409.606 466.667 407.339 461.6C405.206 456.533 401.272 454 395.539 454C389.672 454 384.672 457 380.539 463V523.6C380.539 525.6 381.206 527.2 382.539 528.4L392.339 537.6V538H336.339V537.6L346.139 528.4C347.339 527.2 347.939 525.6 347.939 523.6V412C347.939 409.867 347.339 408.2 346.139 407L336.339 397.8V397.4L380.539 392.2V460.8C386.006 445.2 396.606 437.4 412.339 437.4C422.472 437.4 430.206 441 435.539 448.2C440.872 455.4 443.539 465.867 443.539 479.6ZM550.247 477.8C550.247 478.6 550.18 480 550.047 482C550.047 483.867 550.047 484.867 550.047 485L548.847 513.4C548.447 521.133 550.247 525 554.247 525C556.78 525 558.647 523.8 559.847 521.4H560.247C560.247 524.067 559.714 526.467 558.647 528.6C555.047 535.933 548.514 539.6 539.047 539.6C533.047 539.6 527.98 537.933 523.847 534.6C519.714 531.133 517.514 526.333 517.247 520.2C515.247 526.067 511.78 530.8 506.847 534.4C502.047 537.867 496.447 539.6 490.047 539.6C482.314 539.6 475.847 537.133 470.647 532.2C465.447 527.133 462.847 520.2 462.847 511.4C462.847 502.067 466.18 494.733 472.847 489.4C479.647 483.933 487.514 481.2 496.447 481.2C505.514 481.2 512.58 483 517.647 486.6L518.047 465.2V464.2C518.047 448.867 513.18 441.2 503.447 441.2C501.447 441.2 500.18 441.333 499.647 441.6C499.247 441.867 498.714 442.533 498.047 443.6L481.847 473.6H481.447L468.847 445C482.98 439.933 496.447 437.4 509.247 437.4C523.38 437.4 533.714 440.467 540.247 446.6C546.914 452.867 550.247 463.267 550.247 477.8ZM510.247 487.4C505.18 487.4 501.18 489.333 498.247 493.2C495.447 497.067 494.047 502 494.047 508C494.047 513.333 495.114 517.533 497.247 520.6C499.514 523.533 502.38 525 505.847 525C510.38 525 514.18 522.667 517.247 518V517.8L517.647 488.6C515.247 487.8 512.78 487.4 510.247 487.4ZM577.223 569.2V454.4C577.223 452.4 576.623 450.733 575.423 449.4L565.623 439.4V439H609.823V460.2C616.357 445 626.69 437.4 640.823 437.4C652.023 437.4 661.09 441.867 668.023 450.8C675.09 459.6 678.623 471.467 678.623 486.4C678.623 502.267 674.623 515.133 666.623 525C658.623 534.733 648.49 539.6 636.223 539.6C622.49 539.6 613.69 534.533 609.823 524.4V568C609.823 569.333 609.957 570.267 610.223 570.8C610.623 571.333 611.49 572.067 612.823 573L627.623 583.2V583.6H565.623V583.2L575.423 574C576.623 572.8 577.223 571.2 577.223 569.2ZM624.823 453.4C618.957 453.4 613.957 456.533 609.823 462.8V523C612.89 526.333 617.223 528 622.823 528C628.557 528 633.49 524.733 637.623 518.2C641.89 511.533 644.023 501.467 644.023 488C644.023 464.933 637.623 453.4 624.823 453.4ZM786.141 484H726.141V484.4C726.141 496.667 728.807 505.867 734.141 512C739.474 518 746.341 521 754.741 521C768.874 521 779.007 514.867 785.141 502.6H785.541C780.474 527.267 765.741 539.6 741.341 539.6C727.607 539.6 716.007 535.333 706.541 526.8C697.074 518.267 692.341 505.733 692.341 489.2C692.341 471.733 697.074 458.733 706.541 450.2C716.007 441.667 728.007 437.4 742.541 437.4C748.141 437.4 753.407 438.133 758.341 439.6C763.274 441.067 767.874 443.333 772.141 446.4C776.541 449.467 780.007 453.867 782.541 459.6C785.074 465.2 786.341 471.867 786.341 479.6C786.341 480.933 786.274 482.4 786.141 484ZM742.141 441.2C736.941 441.2 733.007 444.267 730.341 450.4C727.674 456.4 726.274 466.4 726.141 480.4H755.541C755.674 478.667 755.741 476.667 755.741 474.4C755.741 462 754.541 453.4 752.141 448.6C749.874 443.667 746.541 441.2 742.141 441.2ZM869.533 428C865.133 428 861.333 426.667 858.133 424C855.066 421.2 853.533 417.6 853.533 413.2C853.533 408.533 855.066 404.8 858.133 402C861.333 399.067 865.133 397.6 869.533 397.6C874.199 397.6 878.066 399.067 881.133 402C884.199 404.8 885.733 408.533 885.733 413.2C885.733 417.6 884.199 421.2 881.133 424C878.066 426.667 874.199 428 869.533 428ZM842.133 439H886.533V523.6C886.533 525.733 887.133 527.333 888.333 528.4L898.133 537.6V538H842.133V537.6L851.933 528.4C853.133 527.333 853.733 525.733 853.733 523.6V454.4C853.733 452.4 853.133 450.733 851.933 449.4L842.133 439.4V439ZM1009.07 392.2V523C1009.07 525.133 1009.67 526.733 1010.87 527.8L1020.87 537.6V538H976.47V519.2C970.604 532.8 960.804 539.6 947.07 539.6C935.337 539.6 925.804 535.133 918.47 526.2C911.27 517.267 907.67 504.8 907.67 488.8C907.67 473.467 911.67 461.067 919.67 451.6C927.804 442.133 938.137 437.4 950.67 437.4C963.07 437.4 971.67 442.733 976.47 453.4V412C976.47 409.867 975.804 408.2 974.47 407L964.87 397.8V397.4L1009.07 392.2ZM962.47 524.6C967.937 524.6 972.604 522.067 976.47 517V455.2C973.27 451.067 968.937 449 963.47 449C957.337 449 952.27 452.133 948.27 458.4C944.27 464.533 942.27 474.333 942.27 487.8C942.27 500.6 944.07 509.933 947.67 515.8C951.404 521.667 956.337 524.6 962.47 524.6ZM1122.84 484H1062.84V484.4C1062.84 496.667 1065.51 505.867 1070.84 512C1076.18 518 1083.04 521 1091.44 521C1105.58 521 1115.71 514.867 1121.84 502.6H1122.24C1117.18 527.267 1102.44 539.6 1078.04 539.6C1064.31 539.6 1052.71 535.333 1043.24 526.8C1033.78 518.267 1029.04 505.733 1029.04 489.2C1029.04 471.733 1033.78 458.733 1043.24 450.2C1052.71 441.667 1064.71 437.4 1079.24 437.4C1084.84 437.4 1090.11 438.133 1095.04 439.6C1099.98 441.067 1104.58 443.333 1108.84 446.4C1113.24 449.467 1116.71 453.867 1119.24 459.6C1121.78 465.2 1123.04 471.867 1123.04 479.6C1123.04 480.933 1122.98 482.4 1122.84 484ZM1078.84 441.2C1073.64 441.2 1069.71 444.267 1067.04 450.4C1064.38 456.4 1062.98 466.4 1062.84 480.4H1092.24C1092.38 478.667 1092.44 476.667 1092.44 474.4C1092.44 462 1091.24 453.4 1088.84 448.6C1086.58 443.667 1083.24 441.2 1078.84 441.2ZM1222.58 477.8C1222.58 478.6 1222.52 480 1222.38 482C1222.38 483.867 1222.38 484.867 1222.38 485L1221.18 513.4C1220.78 521.133 1222.58 525 1226.58 525C1229.12 525 1230.98 523.8 1232.18 521.4H1232.58C1232.58 524.067 1232.05 526.467 1230.98 528.6C1227.38 535.933 1220.85 539.6 1211.38 539.6C1205.38 539.6 1200.32 537.933 1196.18 534.6C1192.05 531.133 1189.85 526.333 1189.58 520.2C1187.58 526.067 1184.12 530.8 1179.18 534.4C1174.38 537.867 1168.78 539.6 1162.38 539.6C1154.65 539.6 1148.18 537.133 1142.98 532.2C1137.78 527.133 1135.18 520.2 1135.18 511.4C1135.18 502.067 1138.52 494.733 1145.18 489.4C1151.98 483.933 1159.85 481.2 1168.78 481.2C1177.85 481.2 1184.92 483 1189.98 486.6L1190.38 465.2V464.2C1190.38 448.867 1185.52 441.2 1175.78 441.2C1173.78 441.2 1172.52 441.333 1171.98 441.6C1171.58 441.867 1171.05 442.533 1170.38 443.6L1154.18 473.6H1153.78L1141.18 445C1155.32 439.933 1168.78 437.4 1181.58 437.4C1195.72 437.4 1206.05 440.467 1212.58 446.6C1219.25 452.867 1222.58 463.267 1222.58 477.8ZM1182.58 487.4C1177.52 487.4 1173.52 489.333 1170.58 493.2C1167.78 497.067 1166.38 502 1166.38 508C1166.38 513.333 1167.45 517.533 1169.58 520.6C1171.85 523.533 1174.72 525 1178.18 525C1182.72 525 1186.52 522.667 1189.58 518V517.8L1189.98 488.6C1187.58 487.8 1185.12 487.4 1182.58 487.4ZM1297.52 521.4C1297.52 517.533 1296.12 514.467 1293.32 512.2C1290.66 509.933 1285.66 507.133 1278.32 503.8L1264.72 497.4C1251.79 491.267 1245.32 481.8 1245.32 469C1245.32 459.4 1248.99 451.733 1256.32 446C1263.66 440.267 1273.66 437.4 1286.32 437.4C1298.06 437.4 1309.79 439.2 1321.52 442.8L1310.32 471.8H1309.92L1294.32 444C1293.12 442 1291.59 441 1289.72 441H1286.92C1282.26 441 1278.39 442.2 1275.32 444.6C1272.26 447 1270.72 450.467 1270.72 455C1270.72 459.133 1272.12 462.467 1274.92 465C1277.86 467.533 1282.59 470.267 1289.12 473.2L1301.92 478.8C1309.12 481.867 1314.59 485.467 1318.32 489.6C1322.19 493.733 1324.12 499.333 1324.12 506.4C1324.12 516.933 1320.06 525.133 1311.92 531C1303.79 536.733 1292.92 539.6 1279.32 539.6C1266.52 539.6 1254.26 537.533 1242.52 533.4L1253.52 502.4H1253.92L1269.92 533.4C1270.72 535.133 1272.12 536 1274.12 536H1278.72C1284.46 536 1288.99 534.667 1292.32 532C1295.79 529.333 1297.52 525.8 1297.52 521.4ZM1340.36 564.4L1340.16 564C1344.96 561.467 1348.76 557.867 1351.56 553.2C1354.36 548.533 1355.76 543.933 1355.76 539.4C1355.76 537.8 1354.76 536.8 1352.76 536.4C1349.02 535.867 1346.02 534.333 1343.76 531.8C1341.62 529.133 1340.56 525.933 1340.56 522.2C1340.56 518.067 1341.89 514.6 1344.56 511.8C1347.36 509 1350.96 507.6 1355.36 507.6C1360.16 507.6 1364.02 509.267 1366.96 512.6C1370.02 515.933 1371.56 520.533 1371.56 526.4C1371.56 535.067 1368.56 543.067 1362.56 550.4C1356.56 557.867 1349.16 562.533 1340.36 564.4ZM246.284 616.2V683.4C252.95 668.733 263.35 661.4 277.484 661.4C288.95 661.4 298.084 666 304.884 675.2C311.684 684.267 315.084 696.4 315.084 711.6C315.084 726.933 310.95 739.467 302.684 749.2C294.417 758.8 283.617 763.6 270.284 763.6C259.217 763.6 250.95 760 245.484 752.8L213.884 763.6H213.484V636C213.484 633.867 212.884 632.2 211.684 631L202.084 621.8V621.4L246.284 616.2ZM261.284 677.4C255.417 677.4 250.417 680.267 246.284 686V750.6C249.217 753.533 253.084 755 257.884 755C272.95 755 280.484 740.867 280.484 712.6C280.484 689.133 274.084 677.4 261.284 677.4ZM422.676 708H362.676V708.4C362.676 720.667 365.342 729.867 370.676 736C376.009 742 382.876 745 391.276 745C405.409 745 415.542 738.867 421.676 726.6H422.076C417.009 751.267 402.276 763.6 377.876 763.6C364.142 763.6 352.542 759.333 343.076 750.8C333.609 742.267 328.876 729.733 328.876 713.2C328.876 695.733 333.609 682.733 343.076 674.2C352.542 665.667 364.542 661.4 379.076 661.4C384.676 661.4 389.942 662.133 394.876 663.6C399.809 665.067 404.409 667.333 408.676 670.4C413.076 673.467 416.542 677.867 419.076 683.6C421.609 689.2 422.876 695.867 422.876 703.6C422.876 704.933 422.809 706.4 422.676 708ZM378.676 665.2C373.476 665.2 369.542 668.267 366.876 674.4C364.209 680.4 362.809 690.4 362.676 704.4H392.076C392.209 702.667 392.276 700.667 392.276 698.4C392.276 686 391.076 677.4 388.676 672.6C386.409 667.667 383.076 665.2 378.676 665.2ZM540.857 703.6C540.857 708.4 540.724 716.4 540.457 727.6C540.324 738.667 540.257 745.333 540.257 747.6C540.257 749.6 540.857 751.2 542.057 752.4L552.057 761.6V762H495.857V761.6L505.457 752.4C506.657 751.2 507.257 749.667 507.257 747.8C507.257 747.4 507.324 741.667 507.457 730.6C507.724 719.4 507.857 711.933 507.857 708.2C507.857 698.2 506.79 690.667 504.657 685.6C502.524 680.533 498.524 678 492.657 678C486.79 678 481.857 680.933 477.857 686.8V747.6C477.857 749.733 478.457 751.333 479.657 752.4L489.457 761.6V762H433.457V761.6L443.257 752.4C444.457 751.333 445.057 749.733 445.057 747.6V678.4C445.057 676.4 444.457 674.733 443.257 673.4L433.457 663.4V663H477.857V684.2C483.324 669 493.924 661.4 509.657 661.4C519.657 661.4 527.324 665 532.657 672.2C538.124 679.4 540.857 689.867 540.857 703.6ZM662.504 616.2V747C662.504 749.133 663.104 750.733 664.304 751.8L674.304 761.6V762H629.904V743.2C624.037 756.8 614.237 763.6 600.504 763.6C588.771 763.6 579.237 759.133 571.904 750.2C564.704 741.267 561.104 728.8 561.104 712.8C561.104 697.467 565.104 685.067 573.104 675.6C581.237 666.133 591.571 661.4 604.104 661.4C616.504 661.4 625.104 666.733 629.904 677.4V636C629.904 633.867 629.237 632.2 627.904 631L618.304 621.8V621.4L662.504 616.2ZM615.904 748.6C621.371 748.6 626.037 746.067 629.904 741V679.2C626.704 675.067 622.371 673 616.904 673C610.771 673 605.704 676.133 601.704 682.4C597.704 688.533 595.704 698.333 595.704 711.8C595.704 724.6 597.504 733.933 601.104 739.8C604.837 745.667 609.771 748.6 615.904 748.6ZM829.293 616.2V747C829.293 749.133 829.893 750.733 831.093 751.8L841.093 761.6V762H796.693V743.2C790.826 756.8 781.026 763.6 767.293 763.6C755.56 763.6 746.026 759.133 738.693 750.2C731.493 741.267 727.893 728.8 727.893 712.8C727.893 697.467 731.893 685.067 739.893 675.6C748.026 666.133 758.36 661.4 770.893 661.4C783.293 661.4 791.893 666.733 796.693 677.4V636C796.693 633.867 796.026 632.2 794.693 631L785.093 621.8V621.4L829.293 616.2ZM782.693 748.6C788.16 748.6 792.826 746.067 796.693 741V679.2C793.493 675.067 789.16 673 783.693 673C777.56 673 772.493 676.133 768.493 682.4C764.493 688.533 762.493 698.333 762.493 711.8C762.493 724.6 764.293 733.933 767.893 739.8C771.626 745.667 776.56 748.6 782.693 748.6ZM943.066 708H883.066V708.4C883.066 720.667 885.733 729.867 891.066 736C896.4 742 903.266 745 911.666 745C925.8 745 935.933 738.867 942.066 726.6H942.466C937.4 751.267 922.666 763.6 898.266 763.6C884.533 763.6 872.933 759.333 863.466 750.8C854 742.267 849.266 729.733 849.266 713.2C849.266 695.733 854 682.733 863.466 674.2C872.933 665.667 884.933 661.4 899.466 661.4C905.066 661.4 910.333 662.133 915.266 663.6C920.2 665.067 924.8 667.333 929.066 670.4C933.466 673.467 936.933 677.867 939.466 683.6C942 689.2 943.266 695.867 943.266 703.6C943.266 704.933 943.2 706.4 943.066 708ZM899.066 665.2C893.866 665.2 889.933 668.267 887.266 674.4C884.6 680.4 883.2 690.4 883.066 704.4H912.466C912.6 702.667 912.666 700.667 912.666 698.4C912.666 686 911.466 677.4 909.066 672.6C906.8 667.667 903.466 665.2 899.066 665.2ZM1011.21 745.4C1011.21 741.533 1009.81 738.467 1007.01 736.2C1004.34 733.933 999.339 731.133 992.005 727.8L978.405 721.4C965.472 715.267 959.005 705.8 959.005 693C959.005 683.4 962.672 675.733 970.005 670C977.339 664.267 987.339 661.4 1000.01 661.4C1011.74 661.4 1023.47 663.2 1035.21 666.8L1024.01 695.8H1023.61L1008.01 668C1006.81 666 1005.27 665 1003.41 665H1000.61C995.939 665 992.072 666.2 989.005 668.6C985.939 671 984.405 674.467 984.405 679C984.405 683.133 985.805 686.467 988.605 689C991.539 691.533 996.272 694.267 1002.81 697.2L1015.61 702.8C1022.81 705.867 1028.27 709.467 1032.01 713.6C1035.87 717.733 1037.81 723.333 1037.81 730.4C1037.81 740.933 1033.74 749.133 1025.61 755C1017.47 760.733 1006.61 763.6 993.005 763.6C980.205 763.6 967.939 761.533 956.205 757.4L967.205 726.4H967.605L983.605 757.4C984.405 759.133 985.805 760 987.805 760H992.405C998.139 760 1002.67 758.667 1006.01 756C1009.47 753.333 1011.21 749.8 1011.21 745.4ZM1077.04 652C1072.64 652 1068.84 650.667 1065.64 648C1062.58 645.2 1061.04 641.6 1061.04 637.2C1061.04 632.533 1062.58 628.8 1065.64 626C1068.84 623.067 1072.64 621.6 1077.04 621.6C1081.71 621.6 1085.58 623.067 1088.64 626C1091.71 628.8 1093.24 632.533 1093.24 637.2C1093.24 641.6 1091.71 645.2 1088.64 648C1085.58 650.667 1081.71 652 1077.04 652ZM1049.64 663H1094.04V747.6C1094.04 749.733 1094.64 751.333 1095.84 752.4L1105.64 761.6V762H1049.64V761.6L1059.44 752.4C1060.64 751.333 1061.24 749.733 1061.24 747.6V678.4C1061.24 676.4 1060.64 674.733 1059.44 673.4L1049.64 663.4V663ZM1118.36 694.6C1118.36 683.667 1122.29 675.4 1130.16 669.8C1138.03 664.2 1148.43 661.4 1161.36 661.4C1172.69 661.4 1181.83 663.267 1188.76 667C1190.23 667.8 1191.63 667.467 1192.96 666L1213.76 644L1214.16 644.2V674.2H1195.36C1202.16 679.667 1205.56 686.867 1205.56 695.8C1205.56 706.333 1201.56 714.2 1193.56 719.4C1185.69 724.467 1175.16 727 1161.96 727C1155.56 727 1150.16 726.467 1145.76 725.4C1141.63 727 1139.56 729.467 1139.56 732.8C1139.56 738.667 1146.36 741.6 1159.96 741.6H1178.56C1202.43 741.6 1214.36 750.467 1214.36 768.2C1214.36 780.333 1209.03 790.2 1198.36 797.8C1187.69 805.4 1174.23 809.2 1157.96 809.2C1147.03 809.2 1137.43 807.4 1129.16 803.8C1121.03 800.333 1116.96 795.4 1116.96 789C1116.96 784.733 1118.83 780.933 1122.56 777.6C1126.43 774.4 1132.29 772.2 1140.16 771C1133.23 769.533 1127.83 766.867 1123.96 763C1120.23 759.133 1118.36 754.533 1118.36 749.2C1118.36 743.333 1120.63 738.267 1125.16 734C1129.69 729.733 1135.83 726.667 1143.56 724.8C1126.76 720.533 1118.36 710.467 1118.36 694.6ZM1148.96 772C1145.89 771.733 1143.56 771.467 1141.96 771.2C1136.63 774.4 1133.96 778.667 1133.96 784C1133.96 790.4 1137.03 795.467 1143.16 799.2C1149.29 803.067 1156.49 805 1164.76 805C1172.76 805 1179.63 803.333 1185.36 800C1191.23 796.667 1194.16 791.933 1194.16 785.8C1194.16 781.667 1192.69 778.533 1189.76 776.4C1186.96 774.267 1182.03 773.067 1174.96 772.8L1148.96 772ZM1149.16 694C1149.16 704.667 1150.23 712.267 1152.36 716.8C1154.49 721.333 1157.69 723.6 1161.96 723.6C1166.23 723.6 1169.43 721.4 1171.56 717C1173.69 712.467 1174.76 704.867 1174.76 694.2C1174.76 683.667 1173.69 676.133 1171.56 671.6C1169.56 667.067 1166.36 664.8 1161.96 664.8C1157.56 664.8 1154.29 667.067 1152.16 671.6C1150.16 676 1149.16 683.467 1149.16 694ZM1332.04 703.6C1332.04 708.4 1331.9 716.4 1331.64 727.6C1331.5 738.667 1331.44 745.333 1331.44 747.6C1331.44 749.6 1332.04 751.2 1333.24 752.4L1343.24 761.6V762H1287.04V761.6L1296.64 752.4C1297.84 751.2 1298.44 749.667 1298.44 747.8C1298.44 747.4 1298.5 741.667 1298.64 730.6C1298.9 719.4 1299.04 711.933 1299.04 708.2C1299.04 698.2 1297.97 690.667 1295.84 685.6C1293.7 680.533 1289.7 678 1283.84 678C1277.97 678 1273.04 680.933 1269.04 686.8V747.6C1269.04 749.733 1269.64 751.333 1270.84 752.4L1280.64 761.6V762H1224.64V761.6L1234.44 752.4C1235.64 751.333 1236.24 749.733 1236.24 747.6V678.4C1236.24 676.4 1235.64 674.733 1234.44 673.4L1224.64 663.4V663H1269.04V684.2C1274.5 669 1285.1 661.4 1300.84 661.4C1310.84 661.4 1318.5 665 1323.84 672.2C1329.3 679.4 1332.04 689.867 1332.04 703.6ZM1355.88 748.4C1355.88 743.867 1357.42 740.133 1360.48 737.2C1363.68 734.133 1367.48 732.6 1371.88 732.6C1376.42 732.6 1380.22 734.067 1383.28 737C1386.48 739.933 1388.08 743.733 1388.08 748.4C1388.08 752.8 1386.48 756.467 1383.28 759.4C1380.22 762.2 1376.42 763.6 1371.88 763.6C1367.48 763.6 1363.68 762.2 1360.48 759.4C1357.42 756.467 1355.88 752.8 1355.88 748.4Z" fill="#F8F8F8"/>
</svg>
