<svg width="1600" height="1200" viewBox="0 0 1600 1200" fill="none" xmlns="http://www.w3.org/2000/svg">
<path d="M444.912 602.676C438.342 602.676 432.668 600.677 427.89 596.678C423.311 592.48 421.022 587.083 421.022 580.486C421.022 573.489 423.311 567.891 427.89 563.693C432.668 559.295 438.342 557.096 444.912 557.096C451.88 557.096 457.654 559.295 462.233 563.693C466.812 567.891 469.101 573.489 469.101 580.486C469.101 587.083 466.812 592.48 462.233 596.678C457.654 600.677 451.88 602.676 444.912 602.676ZM404 619.168H470.296V746.011C470.296 749.209 471.192 751.608 472.983 753.208L487.616 767.001V767.601H404V767.001L418.633 753.208C420.425 751.608 421.32 749.209 421.32 746.011V642.258C421.32 639.259 420.425 636.76 418.633 634.761L404 619.768V619.168Z" fill="#F8F8F8"/>
<path d="M653.262 549V745.111C653.262 748.31 654.158 750.709 655.95 752.308L670.881 767.001V767.601H604.586V739.414C595.826 759.805 581.193 770 560.687 770C543.168 770 528.933 763.303 517.983 749.909C507.232 736.515 501.857 717.824 501.857 693.835C501.857 670.845 507.83 652.253 519.775 638.06C531.919 623.866 547.348 616.769 566.062 616.769C584.577 616.769 597.419 624.766 604.586 640.758V578.687C604.586 575.488 603.59 572.989 601.599 571.19L587.265 557.396V556.796L653.262 549ZM583.682 747.51C591.844 747.51 598.812 743.712 604.586 736.115V643.457C599.808 637.26 593.337 634.161 585.175 634.161C576.017 634.161 568.451 638.859 562.479 648.255C556.506 657.451 553.52 672.144 553.52 692.335C553.52 711.526 556.208 725.52 561.583 734.316C567.157 743.112 574.524 747.51 583.682 747.51Z" fill="#F8F8F8"/>
<path d="M823.143 686.638H733.554V687.238C733.554 705.629 737.536 719.423 745.499 728.619C753.462 737.615 763.715 742.113 776.258 742.113C797.361 742.113 812.491 732.917 821.649 714.525H822.247C814.681 751.508 792.682 770 756.25 770C735.744 770 718.423 763.603 704.288 750.809C690.153 738.014 683.085 719.223 683.085 694.434C683.085 668.246 690.153 648.755 704.288 635.961C718.423 623.166 736.341 616.769 758.041 616.769C766.403 616.769 774.267 617.869 781.633 620.068C788.999 622.267 795.868 625.665 802.239 630.263C808.808 634.861 813.985 641.458 817.767 650.054C821.55 658.45 823.441 668.446 823.441 680.041C823.441 682.04 823.342 684.239 823.143 686.638ZM757.444 622.467C749.68 622.467 743.807 627.065 739.825 636.26C735.843 645.256 733.753 660.25 733.554 681.24H777.452C777.651 678.641 777.751 675.643 777.751 672.244C777.751 653.653 775.959 640.758 772.376 633.562C768.991 626.165 764.014 622.467 757.444 622.467Z" fill="#F8F8F8"/>
<path d="M972.068 677.342C972.068 678.541 971.968 680.64 971.769 683.639C971.769 686.438 971.769 687.937 971.769 688.137L969.977 730.718C969.38 742.313 972.068 748.11 978.04 748.11C981.823 748.11 984.61 746.311 986.402 742.712H986.999C986.999 746.711 986.203 750.309 984.61 753.507C979.235 764.502 969.48 770 955.344 770C946.386 770 938.82 767.501 932.649 762.503C926.477 757.306 923.192 750.109 922.794 740.913C919.807 749.709 914.631 756.806 907.265 762.204C900.098 767.401 891.736 770 882.18 770C870.633 770 860.977 766.302 853.213 758.905C845.449 751.308 841.567 740.913 841.567 727.719C841.567 713.725 846.544 702.731 856.498 694.734C866.651 686.538 878.398 682.44 891.736 682.44C905.274 682.44 915.826 685.138 923.391 690.536L923.988 658.45V656.951C923.988 633.962 916.722 622.467 902.188 622.467C899.202 622.467 897.311 622.667 896.514 623.066C895.917 623.466 895.121 624.466 894.125 626.065L869.936 671.045H869.339L850.525 628.164C871.629 620.568 891.736 616.769 910.849 616.769C931.952 616.769 947.381 621.367 957.136 630.563C967.09 639.959 972.068 655.552 972.068 677.342ZM912.342 691.735C904.776 691.735 898.804 694.634 894.424 700.432C890.243 706.229 888.153 713.625 888.153 722.621C888.153 730.618 889.745 736.915 892.931 741.513C896.315 745.911 900.596 748.11 905.772 748.11C912.541 748.11 918.215 744.611 922.794 737.615V737.315L923.391 693.535C919.808 692.335 916.124 691.735 912.342 691.735Z" fill="#F8F8F8"/>
<path d="M1083.96 742.712C1083.96 736.915 1081.87 732.317 1077.69 728.919C1073.71 725.52 1066.24 721.322 1055.29 716.324L1034.99 706.729C1015.68 697.533 1006.02 683.339 1006.02 664.148C1006.02 649.754 1011.5 638.26 1022.45 629.663C1033.39 621.067 1048.33 616.769 1067.24 616.769C1084.76 616.769 1102.28 619.468 1119.8 624.866L1103.07 668.346H1102.48L1079.18 626.665C1077.39 623.666 1075.1 622.167 1072.32 622.167H1068.14C1061.17 622.167 1055.39 623.966 1050.81 627.564C1046.24 631.163 1043.95 636.361 1043.95 643.157C1043.95 649.355 1046.04 654.352 1050.22 658.151C1054.6 661.949 1061.67 666.047 1071.42 670.445L1090.53 678.841C1101.28 683.439 1109.45 688.837 1115.02 695.034C1120.79 701.231 1123.68 709.627 1123.68 720.223C1123.68 736.015 1117.61 748.31 1105.46 757.106C1093.32 765.702 1077.09 770 1056.79 770C1037.68 770 1019.36 766.901 1001.84 760.704L1018.26 714.225H1018.86L1042.75 760.704C1043.95 763.303 1046.04 764.602 1049.02 764.602H1055.89C1064.45 764.602 1071.22 762.603 1076.2 758.605C1081.37 754.607 1083.96 749.309 1083.96 742.712Z" fill="#F8F8F8"/>
<path d="M1147.92 747.21C1147.92 740.413 1150.21 734.816 1154.79 730.418C1159.57 725.82 1165.24 723.521 1171.81 723.521C1178.58 723.521 1184.25 725.72 1188.83 730.118C1193.61 734.516 1196 740.214 1196 747.21C1196 753.807 1193.61 759.305 1188.83 763.703C1184.25 767.901 1178.58 770 1171.81 770C1165.24 770 1159.57 767.901 1154.79 763.703C1150.21 759.305 1147.92 753.807 1147.92 747.21Z" fill="#F8F8F8"/>
<path d="M439.676 467.008C439.676 471.8 437.866 475.676 434.247 478.635C430.628 481.595 425.857 483.075 419.934 483.075C414.811 483.075 409.993 482.417 405.481 481.102V464.26H405.622L414.928 480.326C415.351 481.078 415.868 481.501 416.479 481.595C417.185 481.689 418.172 481.736 419.441 481.736C422.355 481.736 424.682 481.031 426.421 479.622C428.16 478.212 429.029 476.216 429.029 473.632C429.029 471.424 428.301 469.663 426.844 468.347C425.387 466.985 422.872 465.458 419.3 463.767L417.114 462.71C415.234 461.817 413.636 460.972 412.32 460.173C411.004 459.327 409.64 458.294 408.23 457.073C406.867 455.804 405.81 454.324 405.058 452.633C404.353 450.895 404 448.969 404 446.855C404 442.392 405.669 438.822 409.006 436.144C412.343 433.466 416.785 432.127 422.331 432.127C426.891 432.127 431.403 432.668 435.868 433.748V449.815H435.727L426.209 434.594C425.833 434.03 425.363 433.701 424.799 433.607C424.282 433.513 423.601 433.466 422.754 433.466C420.216 433.466 418.172 434.147 416.62 435.51C415.116 436.872 414.364 438.775 414.364 441.218C414.364 443.285 415.046 444.952 416.409 446.221C417.819 447.489 420.122 448.898 423.318 450.449L425.927 451.717C427.76 452.61 429.217 453.361 430.299 453.972C431.38 454.536 432.578 455.311 433.894 456.297C435.257 457.237 436.292 458.177 436.997 459.116C437.749 460.056 438.383 461.207 438.9 462.569C439.417 463.931 439.676 465.411 439.676 467.008Z" fill="#F8F8F8"/>
<path d="M480.403 461.794C480.403 463.485 480.356 466.304 480.262 470.25C480.215 474.149 480.191 476.498 480.191 477.296C480.191 478.001 480.426 478.565 480.896 478.988L484.351 482.229V482.37H464.609V482.229L467.923 478.988C468.393 478.565 468.628 478.025 468.628 477.367C468.628 477.226 468.652 475.206 468.699 471.307C468.793 467.361 468.84 464.73 468.84 463.415C468.84 459.891 468.44 457.237 467.641 455.452C466.889 453.667 465.502 452.774 463.481 452.774C461.413 452.774 459.65 453.831 458.193 455.945V477.296C458.193 478.001 458.428 478.565 458.898 478.988L462.353 482.229V482.37H442.612V482.229L446.066 478.988C446.489 478.565 446.701 478.001 446.701 477.296V437.976C446.701 437.225 446.489 436.637 446.066 436.215L442.612 432.973V432.832L458.193 431V455.17C460.121 449.674 463.857 446.925 469.404 446.925C472.976 446.925 475.702 448.194 477.582 450.731C479.463 453.267 480.403 456.955 480.403 461.794Z" fill="#F8F8F8"/>
<path d="M518.02 461.16C518.02 461.441 517.996 461.935 517.949 462.639C517.949 463.297 517.949 463.649 517.949 463.696L517.526 473.703C517.385 476.427 518.02 477.79 519.43 477.79C520.323 477.79 520.981 477.367 521.404 476.521H521.545C521.545 477.461 521.357 478.306 520.981 479.058C519.712 481.642 517.409 482.934 514.072 482.934C511.957 482.934 510.17 482.346 508.713 481.172C507.256 479.951 506.481 478.259 506.387 476.098C505.682 478.165 504.459 479.833 502.72 481.102C501.028 482.323 499.054 482.934 496.798 482.934C494.072 482.934 491.792 482.065 489.959 480.326C488.126 478.541 487.209 476.098 487.209 472.998C487.209 469.71 488.384 467.126 490.734 465.247C493.132 463.321 495.905 462.358 499.054 462.358C502.25 462.358 504.741 462.992 506.528 464.26L506.669 456.72V456.368C506.669 450.965 504.953 448.264 501.522 448.264C500.817 448.264 500.37 448.311 500.182 448.405C500.041 448.499 499.853 448.734 499.618 449.11L493.907 459.68H493.766L489.324 449.603C494.307 447.818 499.054 446.925 503.566 446.925C508.549 446.925 512.192 448.006 514.495 450.167C516.845 452.375 518.02 456.039 518.02 461.16ZM503.919 464.542C502.133 464.542 500.723 465.223 499.689 466.585C498.701 467.948 498.208 469.686 498.208 471.8C498.208 473.679 498.584 475.159 499.336 476.239C500.135 477.273 501.146 477.79 502.368 477.79C503.966 477.79 505.306 476.968 506.387 475.323V475.253L506.528 464.965C505.682 464.683 504.812 464.542 503.919 464.542Z" fill="#F8F8F8"/>
<path d="M527.53 493.363V452.915C527.53 452.21 527.318 451.623 526.895 451.153L523.441 447.63V447.489H539.022V454.959C541.326 449.603 544.968 446.925 549.951 446.925C553.899 446.925 557.095 448.499 559.539 451.647C562.031 454.747 563.276 458.928 563.276 464.19C563.276 469.78 561.866 474.313 559.046 477.79C556.226 481.219 552.653 482.934 548.329 482.934C543.488 482.934 540.385 481.149 539.022 477.578V492.94C539.022 493.41 539.069 493.739 539.163 493.926C539.304 494.114 539.61 494.373 540.08 494.702L545.297 498.295V498.436H523.441V498.295L526.895 495.054C527.318 494.631 527.53 494.067 527.53 493.363ZM544.31 452.563C542.242 452.563 540.479 453.667 539.022 455.875V477.085C540.103 478.259 541.631 478.847 543.605 478.847C545.626 478.847 547.366 477.696 548.823 475.394C550.327 473.045 551.079 469.498 551.079 464.753C551.079 456.626 548.823 452.563 544.31 452.563Z" fill="#F8F8F8"/>
<path d="M576.806 443.613C575.254 443.613 573.915 443.144 572.787 442.204C571.706 441.218 571.165 439.949 571.165 438.399C571.165 436.755 571.706 435.439 572.787 434.453C573.915 433.419 575.254 432.903 576.806 432.903C578.451 432.903 579.814 433.419 580.895 434.453C581.976 435.439 582.516 436.755 582.516 438.399C582.516 439.949 581.976 441.218 580.895 442.204C579.814 443.144 578.451 443.613 576.806 443.613ZM567.146 447.489H582.799V477.296C582.799 478.048 583.01 478.612 583.433 478.988L586.888 482.229V482.37H567.146V482.229L570.601 478.988C571.024 478.612 571.236 478.048 571.236 477.296V452.915C571.236 452.21 571.024 451.623 570.601 451.153L567.146 447.63V447.489Z" fill="#F8F8F8"/>
<path d="M628.244 461.794C628.244 463.485 628.197 466.304 628.103 470.25C628.056 474.149 628.033 476.498 628.033 477.296C628.033 478.001 628.244 478.565 628.667 478.988L632.193 482.229V482.37H612.381V482.229L615.765 478.988C616.188 478.565 616.399 478.025 616.399 477.367C616.399 477.226 616.423 475.206 616.47 471.307C616.564 467.361 616.611 464.73 616.611 463.415C616.611 459.891 616.235 457.237 615.483 455.452C614.731 453.667 613.321 452.774 611.252 452.774C609.184 452.774 607.445 453.808 606.035 455.875V477.296C606.035 478.048 606.247 478.612 606.67 478.988L610.124 482.229V482.37H590.383V482.229L593.838 478.988C594.261 478.612 594.472 478.048 594.472 477.296V452.915C594.472 452.21 594.261 451.623 593.838 451.153L590.383 447.63V447.489H606.035V454.959C607.962 449.603 611.699 446.925 617.245 446.925C620.771 446.925 623.473 448.194 625.354 450.731C627.281 453.267 628.244 456.955 628.244 461.794Z" fill="#F8F8F8"/>
<path d="M636.157 458.623C636.157 454.771 637.544 451.858 640.317 449.885C643.09 447.912 646.757 446.925 651.316 446.925C655.311 446.925 658.531 447.583 660.975 448.898C661.492 449.18 661.986 449.063 662.456 448.546L669.788 440.795L669.929 440.865V451.435H663.302C665.699 453.361 666.898 455.898 666.898 459.046C666.898 462.757 665.488 465.529 662.667 467.361C659.894 469.146 656.181 470.038 651.528 470.038C649.271 470.038 647.368 469.85 645.817 469.475C644.36 470.038 643.631 470.907 643.631 472.082C643.631 474.149 646.028 475.182 650.823 475.182H657.38C665.793 475.182 670 478.306 670 484.554C670 488.829 668.12 492.306 664.36 494.983C660.599 497.661 655.852 499 650.117 499C646.263 499 642.879 498.366 639.965 497.097C637.097 495.876 635.664 494.138 635.664 491.883C635.664 490.38 636.322 489.041 637.638 487.866C639.001 486.739 641.069 485.964 643.842 485.541C641.398 485.024 639.495 484.085 638.132 482.722C636.815 481.36 636.157 479.739 636.157 477.86C636.157 475.793 636.956 474.008 638.555 472.505C640.153 471.001 642.315 469.921 645.041 469.263C639.119 467.76 636.157 464.213 636.157 458.623ZM646.945 485.893C645.864 485.799 645.041 485.705 644.477 485.611C642.597 486.739 641.657 488.242 641.657 490.121C641.657 492.376 642.738 494.161 644.9 495.477C647.062 496.839 649.6 497.52 652.515 497.52C655.335 497.52 657.756 496.933 659.777 495.759C661.845 494.584 662.879 492.916 662.879 490.755C662.879 489.299 662.362 488.195 661.328 487.444C660.341 486.692 658.602 486.269 656.11 486.175L646.945 485.893ZM647.015 458.411C647.015 462.17 647.391 464.847 648.143 466.445C648.895 468.042 650.023 468.84 651.528 468.84C653.032 468.84 654.16 468.065 654.912 466.515C655.664 464.918 656.04 462.24 656.04 458.482C656.04 454.771 655.664 452.116 654.912 450.519C654.207 448.922 653.079 448.123 651.528 448.123C649.976 448.123 648.825 448.922 648.073 450.519C647.368 452.069 647.015 454.7 647.015 458.411Z" fill="#F8F8F8"/>
</svg>
