<svg width="1600" height="1200" viewBox="0 0 1600 1200" fill="none" xmlns="http://www.w3.org/2000/svg">
<path d="M361.296 433.225C354.726 433.225 349.052 431.226 344.274 427.228C339.695 423.03 337.406 417.633 337.406 411.036C337.406 404.039 339.695 398.441 344.274 394.243C349.052 389.845 354.726 387.646 361.296 387.646C368.264 387.646 374.037 389.845 378.616 394.243C383.195 398.441 385.485 404.039 385.485 411.036C385.485 417.633 383.195 423.03 378.616 427.228C374.037 431.226 368.264 433.225 361.296 433.225ZM320.384 449.718H386.679V576.561C386.679 579.759 387.575 582.158 389.367 583.757L404 597.551V598.151H320.384V597.551L335.017 583.757C336.808 582.158 337.704 579.759 337.704 576.561V472.808C337.704 469.809 336.808 467.31 335.017 465.311L320.384 450.318V449.718Z" fill="#F8F8F8"/>
<path d="M567.556 574.162V770.273C567.556 773.472 568.452 775.871 570.244 777.47L585.175 792.163V792.763H518.879V764.576C510.12 784.966 495.487 795.162 474.981 795.162C457.461 795.162 443.227 788.465 432.277 775.071C421.526 761.677 416.151 742.985 416.151 718.996C416.151 696.006 422.123 677.415 434.069 663.221C446.213 649.028 461.642 641.931 480.356 641.931C498.871 641.931 511.712 649.927 518.879 665.92V603.848C518.879 600.65 517.884 598.151 515.893 596.351L501.559 582.558V581.958L567.556 574.162ZM497.975 772.672C506.138 772.672 513.106 768.874 518.879 761.277V668.619C514.101 662.422 507.631 659.323 499.468 659.323C490.31 659.323 482.745 664.021 476.773 673.417C470.8 682.612 467.814 697.306 467.814 717.497C467.814 736.688 470.501 750.682 475.877 759.478C481.451 768.274 488.817 772.672 497.975 772.672Z" fill="#F8F8F8"/>
<path d="M775.959 598.75H686.37V599.35C686.37 617.742 690.352 631.536 698.316 640.732C706.279 649.728 716.532 654.225 729.074 654.225C750.178 654.225 765.308 645.03 774.466 626.638H775.063C767.498 663.621 745.499 682.113 709.066 682.113C688.56 682.113 671.24 675.716 657.105 662.921C642.97 650.127 635.902 631.336 635.902 606.547C635.902 580.359 642.97 560.868 657.105 548.073C671.24 535.279 689.158 528.882 710.858 528.882C719.22 528.882 727.083 529.981 734.45 532.18C741.816 534.379 748.684 537.778 755.055 542.376C761.625 546.974 766.801 553.571 770.584 562.167C774.366 570.563 776.258 580.559 776.258 592.153C776.258 594.152 776.158 596.351 775.959 598.75ZM710.261 534.579C702.496 534.579 696.623 539.177 692.642 548.373C688.66 557.369 686.569 572.362 686.37 593.353H730.269C730.468 590.754 730.567 587.755 730.567 584.357C730.567 565.765 728.776 552.871 725.192 545.674C721.808 538.278 716.831 534.579 710.261 534.579Z" fill="#F8F8F8"/>
<path d="M942.205 408.573C942.205 409.772 942.105 411.871 941.906 414.87C941.906 417.669 941.906 419.168 941.906 419.368L940.114 461.949C939.517 473.543 942.205 479.341 948.177 479.341C951.96 479.341 954.747 477.542 956.539 473.943H957.136C957.136 477.941 956.34 481.54 954.747 484.738C949.372 495.733 939.617 501.231 925.481 501.231C916.523 501.231 908.957 498.732 902.786 493.734C896.614 488.537 893.329 481.34 892.931 472.144C889.944 480.94 884.768 488.037 877.402 493.435C870.235 498.632 861.873 501.231 852.317 501.231C840.77 501.231 831.114 497.533 823.35 490.136C815.586 482.539 811.704 472.144 811.704 458.95C811.704 444.956 816.681 433.961 826.635 425.965C836.789 417.769 848.535 413.67 861.873 413.67C875.411 413.67 885.963 416.369 893.528 421.767L894.125 389.681V388.182C894.125 365.192 886.859 353.697 872.325 353.697C869.339 353.697 867.448 353.897 866.651 354.297C866.054 354.697 865.258 355.697 864.262 357.296L840.073 402.275H839.476L820.662 359.395C841.766 351.798 861.873 348 880.986 348C902.089 348 917.518 352.598 927.273 361.794C937.228 371.189 942.205 386.782 942.205 408.573ZM882.479 422.966C874.913 422.966 868.941 425.865 864.561 431.662C860.38 437.46 858.29 444.856 858.29 453.852C858.29 461.849 859.882 468.146 863.068 472.744C866.452 477.142 870.733 479.341 875.909 479.341C882.678 479.341 888.352 475.842 892.931 468.845V468.546L893.528 424.765C889.945 423.566 886.261 422.966 882.479 422.966Z" fill="#F8F8F8"/>
<path d="M1010.5 724.094C1010.5 718.297 1008.41 713.699 1004.23 710.3C1000.25 706.902 992.781 702.704 981.831 697.706L961.525 688.11C942.213 678.914 932.558 664.721 932.558 645.529C932.558 631.136 938.032 619.641 948.982 611.045C959.932 602.449 974.863 598.151 993.777 598.151C1011.3 598.151 1028.82 600.85 1046.34 606.247L1029.61 649.727H1029.01L1005.72 608.046C1003.93 605.048 1001.64 603.548 998.853 603.548H994.672C987.704 603.548 981.931 605.347 977.352 608.946C972.773 612.544 970.484 617.742 970.484 624.539C970.484 630.736 972.574 635.734 976.755 639.532C981.135 643.33 988.202 647.429 997.957 651.827L1017.07 660.223C1027.82 664.821 1035.98 670.218 1041.56 676.415C1047.33 682.613 1050.22 691.009 1050.22 701.604C1050.22 717.397 1044.15 729.691 1032 738.487C1019.86 747.084 1003.63 751.382 983.325 751.382C964.212 751.382 945.896 748.283 928.377 742.086L944.801 695.607H945.399L969.289 742.086C970.483 744.685 972.574 745.984 975.56 745.984H982.429C990.989 745.984 997.758 743.985 1002.74 739.987C1007.91 735.989 1010.5 730.691 1010.5 724.094Z" fill="#F8F8F8"/>
<path d="M1080.09 809.855C1080.09 803.058 1082.38 797.461 1086.96 793.063C1091.73 788.465 1097.41 786.166 1103.98 786.166C1110.75 786.166 1116.42 788.365 1121 792.763C1125.78 797.161 1128.17 802.858 1128.17 809.855C1128.17 816.452 1125.78 821.95 1121 826.348C1116.42 830.546 1110.75 832.645 1103.98 832.645C1097.41 832.645 1091.73 830.546 1086.96 826.348C1082.38 821.95 1080.09 816.452 1080.09 809.855Z" fill="#F8F8F8"/>
</svg>
