<svg width="1600" height="1200" viewBox="0 0 1600 1200" fill="none" xmlns="http://www.w3.org/2000/svg">
<path d="M305.031 564.093C358.653 564.093 389.08 541.891 389.08 505.72C389.08 474.538 371.123 459.57 332.216 453.334L296.551 448.095C275.351 444.603 268.119 439.614 268.119 428.139C268.119 416.165 280.838 409.429 302.537 409.429C328.724 409.429 348.926 419.657 359.9 437.369L389.08 412.922C372.37 388.724 342.94 377 305.031 377C255.15 377 225.47 397.206 225.47 430.883C225.47 461.566 244.176 478.28 280.589 484.017L317.251 489.505C337.204 492.499 344.936 497.488 344.936 509.711C344.936 523.93 330.969 530.416 307.026 530.416C277.845 530.416 257.394 517.943 245.922 497.987L213 520.937C227.715 547.878 260.636 564.093 305.031 564.093Z" fill="#F8F8F8"/>
<path d="M421.092 559.104H463.74V497.737C463.74 475.037 475.712 462.065 495.913 462.065C515.118 462.065 525.094 473.29 525.094 495.243V559.104H567.742V490.752C567.742 451.338 549.037 430.384 514.12 430.384C490.925 430.384 473.218 440.113 463.74 458.572V378.247H421.092V559.104Z" fill="#F8F8F8"/>
<path d="M647.431 562.846C673.868 562.846 693.322 553.616 701.552 537.9C701.552 545.384 702.3 553.117 703.298 559.104H745.448C743.452 550.373 742.455 538.648 742.455 522.683V484.017C742.455 447.846 720.756 430.633 673.369 430.633C631.22 430.633 603.536 447.846 600.294 476.284H643.94C645.685 463.811 655.911 457.076 673.12 457.076C690.08 457.076 699.557 463.811 699.557 477.781V481.523L653.168 485.763C630.97 488.008 618.5 491.75 609.771 497.737C601.042 503.974 596.303 513.453 596.303 524.928C596.303 548.377 616.006 562.846 647.431 562.846ZM663.643 536.902C648.928 536.902 639.949 531.414 639.949 522.184C639.949 512.455 647.182 507.466 666.137 505.221L700.555 501.729V509.711C700.555 526.175 685.59 536.902 663.643 536.902Z" fill="#F8F8F8"/>
<path d="M781.522 607.748H824.17V541.642C834.645 554.863 851.106 562.846 872.056 562.846C909.966 562.846 935.904 536.403 935.904 496.241C935.904 456.577 911.213 430.633 873.802 430.633C851.854 430.633 833.149 439.115 822.923 455.33V434.375H781.522V607.748ZM857.59 534.158C836.89 534.158 823.172 520.438 823.172 499.483V494.245C823.172 472.043 836.89 459.321 857.84 459.321C879.289 459.321 891.759 472.792 891.759 496.241C891.759 519.689 878.79 534.158 857.59 534.158Z" fill="#F8F8F8"/>
<path d="M965.503 416.414H1010.4V379.245H965.503V416.414ZM966.501 559.104H1009.15V434.375H966.501V559.104Z" fill="#F8F8F8"/>
<path d="M1051.13 559.104H1093.78V497.737C1093.78 475.286 1105.75 462.314 1126.45 462.314C1145.91 462.314 1155.13 473.29 1155.13 495.742V559.104H1197.78V489.256C1197.78 450.59 1179.58 430.633 1144.66 430.633C1120.22 430.633 1102.51 440.612 1092.53 460.568V434.375H1051.13V559.104Z" fill="#F8F8F8"/>
<path d="M1383 440.861V413.171C1380.26 412.672 1378.01 412.423 1375.27 412.423C1354.82 412.423 1341.35 420.655 1337.11 435.622C1326.88 432.379 1314.66 430.633 1300.7 430.633C1258.05 430.633 1232.36 446.599 1232.36 473.041C1232.36 487.51 1240.34 499.234 1254.81 506.967C1238.1 511.707 1228.62 521.685 1228.62 535.655C1228.62 546.381 1235.1 554.613 1246.82 559.104C1232.11 563.344 1224.88 571.078 1224.88 581.555C1224.88 600.514 1248.07 611.49 1296.71 611.49C1353.82 611.49 1382 595.524 1382 565.34C1382 541.143 1365.79 528.919 1332.87 528.67H1279.25C1267.77 528.67 1262.54 525.178 1262.54 518.941C1262.54 515.948 1264.28 513.703 1267.53 511.956C1277 514.7 1288.23 516.197 1300.7 516.197C1342.85 516.197 1368.78 499.234 1368.78 473.041C1368.78 460.818 1363.3 450.839 1353.07 443.605C1357.31 440.861 1363.05 439.364 1370.28 439.364C1374.77 439.364 1378.76 439.863 1383 440.861ZM1300.7 494.744C1284.24 494.744 1274.01 486.262 1274.01 473.041C1274.01 459.82 1283.99 451.837 1300.7 451.837C1317.16 451.837 1327.13 459.82 1327.13 473.041C1327.13 486.262 1316.91 494.744 1300.7 494.744ZM1328.38 563.095C1340.6 563.095 1346.09 566.837 1346.09 574.57C1346.09 584.798 1333.62 589.787 1299.2 589.787C1271.27 589.787 1256.55 585.047 1256.55 573.572C1256.55 569.331 1258.05 565.59 1261.79 562.347C1264.53 562.596 1267.28 562.846 1270.27 562.846L1328.38 563.095Z" fill="#F8F8F8"/>
<path d="M392.728 695.569H437.621V658.4H392.728V695.569ZM393.725 838.258H436.374V713.53H393.725V838.258Z" fill="#F8F8F8"/>
<path d="M529.236 842C552.681 842 571.386 832.022 580.614 815.558V838.258H621.516V657.402H578.868V731.241C569.141 717.022 552.93 709.788 531.232 709.788C493.073 709.788 467.134 736.23 467.134 775.894C467.134 815.308 492.574 842 529.236 842ZM545.697 813.312C524.498 813.312 511.279 798.594 511.279 775.395C511.279 751.946 523.75 738.475 544.949 738.475C565.899 738.475 579.616 751.198 579.616 772.152V780.384C579.616 800.091 565.899 813.312 545.697 813.312Z" fill="#F8F8F8"/>
<path d="M802.974 775.395C802.974 734.234 775.789 709.788 728.402 709.788C682.512 709.788 652.832 734.983 652.832 776.892C652.832 817.803 682.262 842 730.896 842C762.82 842 787.511 830.026 800.48 809.072L768.557 794.603C761.074 806.577 748.105 812.814 731.894 812.814C709.198 812.814 694.982 802.586 693.735 785.373H802.974V775.395ZM761.074 762.174H693.485C694.732 744.712 707.452 734.234 727.903 734.234C747.856 734.234 761.074 744.462 761.074 761.675V762.174Z" fill="#F8F8F8"/>
<path d="M876.309 842C902.746 842 922.2 832.77 930.43 817.054C930.43 824.538 931.179 832.271 932.176 838.258H974.326C972.33 829.527 971.333 817.803 971.333 801.837V763.172C971.333 727 949.635 709.788 902.248 709.788C860.098 709.788 832.414 727 829.172 755.438H872.818C874.564 742.966 884.789 736.23 901.998 736.23C918.958 736.23 928.435 742.966 928.435 756.935V760.677L882.046 764.918C859.849 767.163 847.378 770.905 838.649 776.892C829.92 783.128 825.181 792.608 825.181 804.083C825.181 827.532 844.884 842 876.309 842ZM892.521 816.056C877.806 816.056 868.827 810.568 868.827 801.339C868.827 791.61 876.06 786.62 895.015 784.375L929.433 780.883V788.866C929.433 805.33 914.468 816.056 892.521 816.056Z" fill="#F8F8F8"/>
<path d="M1072.5 842C1115.89 842 1138.09 826.035 1138.09 799.592C1138.09 777.64 1125.87 764.918 1095.19 761.425L1058.53 757.683C1047.06 756.436 1042.57 753.443 1042.57 747.456C1042.57 740.221 1050.3 736.979 1066.76 736.979C1089.21 736.979 1104.92 742.467 1117.64 753.942L1137.59 733.486C1123.62 718.269 1099.18 709.788 1069 709.788C1027.1 709.788 1003.66 724.506 1003.66 749.95C1003.66 771.903 1018.13 784.625 1048.55 788.367L1081.72 791.61C1095.94 793.106 1099.68 795.85 1099.68 802.835C1099.68 810.568 1091.95 814.31 1074.49 814.31C1048.55 814.31 1030.85 806.827 1019.12 792.857L996.178 812.315C1011.64 831.772 1037.83 842 1072.5 842Z" fill="#F8F8F8"/>
<path d="M1210.03 797.597H1163.89V838.258H1210.03V797.597Z" fill="#F8F8F8"/>
</svg>
