<svg width="1600" height="1200" viewBox="0 0 1600 1200" fill="none" xmlns="http://www.w3.org/2000/svg">
<path d="M374.1 491.569C374.1 494.297 375.009 496.479 376.828 498.116L394.83 515.3V515.846H304V515.3L322.275 498.116C323.912 496.479 324.73 494.297 324.73 491.569V348.368C324.73 345.64 323.912 343.458 322.275 341.822L304 324.637V324.092H394.83V324.637L376.828 341.822C375.009 343.458 374.1 345.64 374.1 348.368V491.569Z" fill="#F8F8F8"/>
<path d="M615.911 436.198C615.911 442.745 615.729 453.655 615.365 468.93C615.183 484.023 615.092 493.115 615.092 496.207C615.092 498.934 615.911 501.116 617.547 502.753L631.185 515.3V515.846H554.539V515.3L567.632 502.753C569.268 501.116 570.087 499.025 570.087 496.479C570.087 495.934 570.177 488.114 570.359 473.021C570.723 457.747 570.905 447.563 570.905 442.472C570.905 428.834 569.45 418.559 566.541 411.649C563.631 404.739 558.176 401.284 550.175 401.284C542.174 401.284 535.446 405.285 529.99 413.286V496.207C529.99 499.116 530.809 501.298 532.445 502.753L545.811 515.3V515.846H469.437V515.3L482.802 502.753C484.439 501.298 485.257 499.116 485.257 496.207V401.83C485.257 399.102 484.439 396.829 482.802 395.011L469.437 381.373V380.827H529.99V409.74C537.446 389.01 551.902 378.645 573.36 378.645C586.998 378.645 597.454 383.555 604.727 393.374C612.183 403.194 615.911 417.468 615.911 436.198Z" fill="#F8F8F8"/>
<path d="M770.904 442.199H689.075V442.745C689.075 459.474 692.712 472.021 699.986 480.386C707.259 488.569 716.624 492.661 728.08 492.661C747.355 492.661 761.175 484.296 769.54 467.566H770.086C763.176 501.207 743.082 518.028 709.805 518.028C691.075 518.028 675.255 512.209 662.344 500.571C649.434 488.933 642.978 471.84 642.978 449.291C642.978 425.469 649.434 407.74 662.344 396.102C675.255 384.464 691.621 378.645 711.442 378.645C719.079 378.645 726.262 379.645 732.99 381.645C739.718 383.646 745.992 386.737 751.81 390.919C757.811 395.102 762.539 401.102 765.994 408.922C769.449 416.559 771.177 425.651 771.177 436.198C771.177 438.017 771.086 440.017 770.904 442.199ZM710.896 383.827C703.804 383.827 698.44 388.01 694.803 396.375C691.166 404.558 689.257 418.196 689.075 437.289H729.171C729.353 434.925 729.444 432.198 729.444 429.106C729.444 412.195 727.807 400.466 724.534 393.92C721.443 387.191 716.897 383.827 710.896 383.827Z" fill="#F8F8F8"/>
<path d="M917.535 442.199H835.706V442.745C835.706 459.474 839.343 472.021 846.617 480.386C853.891 488.569 863.255 492.661 874.711 492.661C893.987 492.661 907.807 484.296 916.171 467.566H916.717C909.807 501.207 889.713 518.028 856.436 518.028C837.707 518.028 821.886 512.209 808.976 500.571C796.065 488.933 789.609 471.84 789.609 449.291C789.609 425.469 796.065 407.74 808.976 396.102C821.886 384.464 838.252 378.645 858.073 378.645C865.71 378.645 872.893 379.645 879.621 381.645C886.349 383.646 892.623 386.737 898.442 390.919C904.443 395.102 909.17 401.102 912.625 408.922C916.08 416.559 917.808 425.651 917.808 436.198C917.808 438.017 917.717 440.017 917.535 442.199ZM857.527 383.827C850.436 383.827 845.071 388.01 841.434 396.375C837.798 404.558 835.888 418.196 835.706 437.289H875.803C875.984 434.925 876.075 432.198 876.075 429.106C876.075 412.195 874.439 400.466 871.166 393.92C868.074 387.191 863.528 383.827 857.527 383.827Z" fill="#F8F8F8"/>
<path d="M1075.08 317V495.388C1075.08 498.298 1075.9 500.48 1077.53 501.935L1091.17 515.3V515.846H1030.62V490.206C1022.62 508.754 1009.25 518.028 990.521 518.028C974.519 518.028 961.517 511.936 951.515 499.752C941.696 487.569 936.786 470.567 936.786 448.745C936.786 427.833 942.242 410.922 953.152 398.011C964.244 385.1 978.337 378.645 995.43 378.645C1012.34 378.645 1024.07 385.919 1030.62 400.466V344.004C1030.62 341.094 1029.71 338.821 1027.89 337.185L1014.8 324.637V324.092L1075.08 317ZM1011.52 497.57C1018.98 497.57 1025.34 494.115 1030.62 487.205V402.921C1026.25 397.284 1020.34 394.465 1012.89 394.465C1004.52 394.465 997.612 398.739 992.157 407.285C986.702 415.65 983.974 429.015 983.974 447.382C983.974 464.839 986.429 477.568 991.339 485.569C996.431 493.57 1003.16 497.57 1011.52 497.57Z" fill="#F8F8F8"/>
<path d="M1282.36 433.743C1282.36 434.834 1282.27 436.744 1282.09 439.471C1282.09 442.017 1282.09 443.381 1282.09 443.563L1280.45 482.295C1279.91 492.842 1282.36 498.116 1287.82 498.116C1291.27 498.116 1293.82 496.479 1295.45 493.206H1296C1296 496.843 1295.27 500.116 1293.82 503.026C1288.91 513.027 1280 518.028 1267.09 518.028C1258.9 518.028 1251.99 515.755 1246.36 511.209C1240.72 506.481 1237.72 499.934 1237.36 491.569C1234.63 499.571 1229.9 506.026 1223.17 510.936C1216.63 515.664 1208.99 518.028 1200.26 518.028C1189.71 518.028 1180.89 514.664 1173.8 507.935C1166.71 501.025 1163.16 491.57 1163.16 479.568C1163.16 466.839 1167.71 456.837 1176.8 449.564C1186.08 442.108 1196.81 438.38 1208.99 438.38C1221.35 438.38 1230.99 440.835 1237.9 445.745L1238.45 416.559V415.195C1238.45 394.283 1231.81 383.827 1218.54 383.827C1215.81 383.827 1214.08 384.009 1213.35 384.373C1212.81 384.737 1212.08 385.646 1211.17 387.101L1189.08 428.015H1188.53L1171.35 389.01C1190.62 382.1 1208.99 378.645 1226.45 378.645C1245.72 378.645 1259.81 382.827 1268.72 391.192C1277.82 399.739 1282.36 413.922 1282.36 433.743ZM1227.81 446.836C1220.9 446.836 1215.44 449.473 1211.44 454.746C1207.62 460.02 1205.72 466.748 1205.72 474.931C1205.72 482.205 1207.17 487.933 1210.08 492.115C1213.17 496.116 1217.08 498.116 1221.81 498.116C1227.99 498.116 1233.17 494.934 1237.36 488.569V488.296L1237.9 448.473C1234.63 447.382 1231.26 446.836 1227.81 446.836Z" fill="#F8F8F8"/>
<path d="M658.013 810.99C658.013 833.902 652.103 851.541 640.284 863.906C628.464 876.454 611.643 882.818 589.822 883C588.004 883 586.64 882.909 585.731 882.727V882.182C604.097 878.545 613.28 859.906 613.28 826.265V707.067C613.28 704.339 612.462 702.066 610.825 700.248L597.46 686.609V686.064H658.013V810.99ZM612.734 650.877C612.734 644.513 614.917 639.421 619.281 635.602C623.645 631.602 628.828 629.601 634.828 629.601C641.193 629.601 646.466 631.602 650.649 635.602C654.831 639.421 656.922 644.513 656.922 650.877C656.922 656.878 654.831 661.788 650.649 665.606C646.466 669.243 641.193 671.062 634.828 671.062C628.828 671.062 623.645 669.243 619.281 665.606C614.917 661.788 612.734 656.878 612.734 650.877Z" fill="#F8F8F8"/>
<path d="M772.045 702.975C768.408 693.701 762.862 689.064 755.406 689.064C747.951 689.064 742.405 693.61 738.768 702.702C735.131 711.613 733.313 728.524 733.313 753.437C733.313 778.167 735.131 795.17 738.768 804.444C742.405 813.718 747.951 818.355 755.406 818.355C762.862 818.355 768.408 813.809 772.045 804.717C775.682 795.624 777.5 778.622 777.5 753.71C777.5 728.979 775.682 712.067 772.045 702.975ZM755.406 823.265C733.222 823.265 715.674 817.355 702.763 805.535C690.034 793.533 683.67 776.167 683.67 753.437C683.67 731.07 690.125 713.886 703.036 701.884C715.947 689.883 733.404 683.882 755.406 683.882C777.591 683.882 795.139 689.883 808.05 701.884C820.961 713.704 827.416 730.979 827.416 753.71C827.416 776.076 820.87 793.26 807.777 805.262C794.866 817.264 777.409 823.265 755.406 823.265Z" fill="#F8F8F8"/>
<path d="M897.049 622.237V713.886C906.141 693.883 920.325 683.882 939.6 683.882C955.239 683.882 967.695 690.155 976.969 702.702C986.243 715.068 990.88 731.616 990.88 752.346C990.88 773.258 985.242 790.351 973.968 803.625C962.694 816.718 947.965 823.265 929.781 823.265C914.688 823.265 903.414 818.355 895.958 808.535L852.862 823.265H852.316V649.241C852.316 646.331 851.498 644.058 849.861 642.421L836.769 629.874V629.329L897.049 622.237ZM917.506 705.703C909.505 705.703 902.686 709.612 897.049 717.432V805.535C901.05 809.535 906.323 811.536 912.869 811.536C933.418 811.536 943.692 792.26 943.692 753.71C943.692 721.705 934.963 705.703 917.506 705.703Z" fill="#F8F8F8"/>
<path d="M1008.49 802.534C1008.49 796.352 1010.58 791.26 1014.76 787.26C1019.12 783.077 1024.31 780.986 1030.31 780.986C1036.49 780.986 1041.67 782.986 1045.85 786.987C1050.22 790.987 1052.4 796.17 1052.4 802.534C1052.4 808.535 1050.22 813.536 1045.85 817.536C1041.67 821.355 1036.49 823.265 1030.31 823.265C1024.31 823.265 1019.12 821.355 1014.76 817.536C1010.58 813.536 1008.49 808.535 1008.49 802.534Z" fill="#F8F8F8"/>
</svg>
