<svg width="1600" height="1200" viewBox="0 0 1600 1200" fill="none" xmlns="http://www.w3.org/2000/svg">
<path d="M484.354 579.197C505.908 579.197 528.22 570.132 528.22 525.942V497.615C528.22 420.188 479.816 397.904 479.816 332.186V322.744C479.816 309.525 480.572 304.992 485.11 304.992C489.648 304.992 490.404 309.525 490.404 322.744V368.445H528.22V320.478C528.22 280.065 509.69 271 485.866 271C464.311 271 442 280.065 442 324.255V334.83C442 412.257 490.404 434.541 490.404 500.259V527.453C490.404 540.672 489.648 545.204 485.11 545.204C480.572 545.204 479.816 540.672 479.816 527.453V466.644H442V529.719C442 570.132 460.53 579.197 484.354 579.197Z" fill="white"/>
<path d="M602.214 274.022V393.75H589.735V274.022H551.92V576.175H589.735V429.631H602.214V576.175H640.03V274.022H602.214Z" fill="white"/>
<path d="M717.251 576.175H755.445L733.512 274.022H679.813L657.88 576.175H693.805L698.343 477.975H713.091L717.251 576.175ZM700.234 443.983L701.368 416.411L704.394 323.121H707.797L710.444 416.411L711.579 443.983H700.234Z" fill="white"/>
<path d="M820.003 274.022H773.112V576.175H810.927V403.192H820.003C842.693 403.192 859.331 390.351 859.331 359.002V318.211C859.331 283.086 842.693 274.022 820.003 274.022ZM821.516 353.337C821.516 366.556 820.759 371.088 813.574 371.088H810.927V308.014H813.574C820.759 308.014 821.516 312.546 821.516 325.765V353.337Z" fill="white"/>
<path d="M879.276 576.175H917.092V274.022H879.276V576.175Z" fill="white"/>
<path d="M1009.13 274.022L1017.45 471.554H1014.05L989.089 274.022H943.711V576.175H980.392L972.072 378.642H975.476L1000.43 576.175H1045.81V274.022H1009.13Z" fill="white"/>
<path d="M1159 411.879V328.031C1159 280.065 1141.23 271 1114.76 271C1090.93 271 1070.51 280.065 1070.51 328.031V523.298C1070.51 571.265 1088.28 579.197 1105.68 579.197C1128.75 579.197 1138.2 568.244 1138.58 515.367H1141.98L1143.87 576.175H1159V434.541H1121.18V511.59C1121.18 539.539 1120.43 545.204 1114.38 545.204C1109.08 545.204 1108.33 540.672 1108.33 527.453V322.744C1108.33 309.525 1109.08 304.992 1114.76 304.992C1120.43 304.992 1121.18 309.525 1121.18 322.744V411.879H1159Z" fill="white"/>
<path d="M442 926.175H479.816V624.022H442V926.175Z" fill="white"/>
<path d="M553.326 624.022H506.434V926.175H553.326C576.015 926.175 592.654 917.11 592.654 878.208V671.988C592.654 633.086 576.015 624.022 553.326 624.022ZM554.838 870.654C554.838 887.65 554.082 892.183 546.897 892.183H544.25V658.014H546.897C554.082 658.014 554.838 662.546 554.838 679.542V870.654Z" fill="white"/>
<path d="M655.215 890.294V779.631H680.93V743.75H655.215V659.902H682.821V624.022H617.4V926.175H684.712V890.294H655.215Z" fill="white"/>
<path d="M755.034 926.175H793.228L771.295 624.022H717.597L695.663 926.175H731.588L736.126 827.975H750.874L755.034 926.175ZM738.017 793.983L739.151 766.411L742.177 673.121H745.58L748.227 766.411L749.362 793.983H738.017Z" fill="white"/>
<path d="M850.601 929.197C872.156 929.197 894.468 920.132 894.468 875.942V847.615C894.468 770.188 846.063 747.904 846.063 682.186V672.744C846.063 659.525 846.82 654.992 851.358 654.992C855.896 654.992 856.652 659.525 856.652 672.744V718.445H894.468V670.478C894.468 630.065 875.938 621 852.114 621C830.559 621 808.248 630.065 808.248 674.255V684.83C808.248 762.257 856.652 784.541 856.652 850.259V877.453C856.652 890.672 855.896 895.204 851.358 895.204C846.82 895.204 846.063 890.672 846.063 877.453V816.644H808.248V879.719C808.248 920.132 826.777 929.197 850.601 929.197Z" fill="white"/>
<path d="M916.277 926.175H954.092V875.187H916.277V926.175Z" fill="white"/>
</svg>
