<svg width="1600" height="1200" viewBox="0 0 1600 1200" fill="none" xmlns="http://www.w3.org/2000/svg">
<path d="M346.228 419.343H295V563.924H426.109V450.17L363.159 288.656H407.007V260H312.8V333.376L346.228 419.343ZM353.174 535.268V437.144L391.378 535.268H353.174Z" fill="white"/>
<path d="M581.977 563.924V260H523.803V390.687H509.043V260H450.868V563.924H509.043V419.343H523.803V563.924H581.977Z" fill="white"/>
<path d="M649.119 260L609.613 341.625V563.924H667.787V419.343H682.548V563.924H740.722V260H649.119ZM682.548 390.687H667.787V288.656H682.548V390.687Z" fill="white"/>
<path d="M827.42 563.924V472.747H900.355V260H769.246V563.924H827.42ZM842.181 288.656V444.091H827.42V288.656H842.181Z" fill="white"/>
<path d="M985.761 563.924V260H927.587V563.924H985.761Z" fill="white"/>
<path d="M1145.39 563.924V260H1014.28V563.924H1072.45V288.656H1087.21V563.924H1145.39Z" fill="white"/>
<path d="M1305 563.924V454.511L1285.9 390.687H1305V362.032H1232.07V288.656H1305V260H1173.89V563.924H1305ZM1232.07 535.268V417.172L1267.66 535.268H1232.07Z" fill="white"/>
<path d="M353.174 940V636.076H295V940H353.174Z" fill="white"/>
<path d="M512.801 940V717.701L472.86 636.076H381.692V940H512.801ZM454.626 664.732V911.344H439.866V664.732H454.626Z" fill="white"/>
<path d="M671.565 940V911.344H598.631V795.419H671.565V766.763H651.161L671.565 664.732V636.076H540.456V940H671.565ZM598.631 664.732H615.128L598.631 764.158V664.732Z" fill="white"/>
<path d="M737.435 636.076L697.929 717.701V940H756.103V795.419H770.864V940H829.038V636.076H737.435ZM770.864 766.763H756.103V664.732H770.864V766.763Z" fill="white"/>
<path d="M905.751 795.419H854.523V940H985.632V826.246L922.682 664.732H966.53V636.076H872.323V709.452L905.751 795.419ZM912.697 911.344V813.22L950.901 911.344H912.697Z" fill="white"/>
<path d="M1069 940V881.386H1010.39V940H1069Z" fill="white"/>
</svg>
