<svg width="29" height="29" viewBox="0 0 29 29" fill="none" xmlns="http://www.w3.org/2000/svg">
<path d="M19.857 11.5L22.9182 14V26.5H19.857H5.57129V23.5H18.857C19.4093 23.5 19.857 23.0523 19.857 22.5V19V11.5Z" fill="#E0EBFF"/>
<path d="M5.06122 14.5V26C5.06122 26.5523 5.50894 27 6.06122 27H22.4286C22.9809 27 23.4286 26.5523 23.4286 26V14.5M27 17.5L15.1771 6.62289C14.7943 6.2708 14.2057 6.2708 13.8229 6.62289L2 17.5" stroke="#4274F7"/>
<path d="M12 20V27H17V20C17 19.4477 16.5523 19 16 19H13C12.4477 19 12 19.4477 12 20Z" stroke="#4274F7"/>
</svg>
